<?xml version="1.0" standalone="no"?>
<!DOCTYPE svg PUBLIC "-//W3C//DTD SVG 1.0//EN" "http://www.w3.org/TR/2001/REC-SVG-20010904/DTD/svg10.dtd">
<svg xmlns="http://www.w3.org/2000/svg" xmlns:xlink="http://www.w3.org/1999/xlink" id="body_1" width="589" height="289">

<defs>
    <clipPath  id="1">

    <path id=""  clip-rule="evenodd" transform="matrix(1 0 0 1 0 0)"  d="M0 -0.5L442.5 -0.5L442.5 -0.5L442.5 217L442.5 217L1.33180346E-14 217L1.33180346E-14 217L0 -0.5z" />    </clipPath>
</defs>

<g transform="matrix(1.3333 0 0 1.3333 0 0)">
	<g clip-path="url(#1)" >
    <path id=""  transform="matrix(1 0 0 -1 0 217)"  d="M217.5 217.5L217.5 217.5L217.5 217.5L112.5 217.5L112.5 217.5L112.5 217.5L112.5 217.5L112.5 112.5L112.5 112.5L112.5 112.5L112.5 112.5L142.5 112.5L142.5 112.5L142.5 112.5C 183.92099 112.5 217.5 146.07863 217.5 187.5L217.5 187.5L217.5 187.5L217.5 187.5L217.5 217.5z" stroke="#FFFFFF" stroke-width="1" fill="#FC8B4C" fill-rule="nonzero" />
    <path id=""  transform="matrix(1 0 0 -1 0 217)"  d="M135 184.49998C 135 188.64212 136.46446 192.17766 139.3934 195.10658L139.3934 195.10658L139.3934 195.10658C 142.32233 198.03552 145.85786 199.49998 150 199.49998L150 199.49998L150 199.49998C 154.14214 199.49998 157.67767 198.03552 160.6066 195.10658L160.6066 195.10658L160.6066 195.10658C 163.53554 192.17766 165 188.64212 165 184.49998L165 184.49998L165 184.49998C 165 180.35785 163.53554 176.82231 160.6066 173.89339L160.6066 173.89339L160.6066 173.89339C 157.67767 170.96445 154.14214 169.49998 150 169.49998L150 169.49998L150 169.49998C 145.85786 169.49998 142.32233 170.96445 139.3934 173.89339L139.3934 173.89339L139.3934 173.89339C 136.46446 176.82231 135 180.35785 135 184.49998" stroke="#FFFFFF" stroke-width="1" fill="#000000" fill-rule="evenodd" />
    <path id=""  transform="matrix(1 0 0 -1 0 217)"  d="M135 169.49998C 135 173.64212 136.46446 177.17766 139.3934 180.10658L139.3934 180.10658L139.3934 180.10658C 142.32233 183.03552 145.85786 184.49998 150 184.49998L150 184.49998L150 184.49998C 154.14214 184.49998 157.67767 183.03552 160.6066 180.10658L160.6066 180.10658L160.6066 180.10658C 163.53554 177.17766 165 173.64212 165 169.49998L165 169.49998L165 169.49998C 165 165.35785 163.53554 161.82231 160.6066 158.89339L160.6066 158.89339L160.6066 158.89339C 157.67767 155.96445 154.14214 154.49998 150 154.49998L150 154.49998L150 154.49998C 145.85786 154.49998 142.32233 155.96445 139.3934 158.89339L139.3934 158.89339L139.3934 158.89339C 136.46446 161.82231 135 165.35785 135 169.49998" stroke="#FFFFFF" stroke-width="1" fill="#FDE9D4" fill-rule="evenodd" />
    <path id=""  transform="matrix(1 0 0 -1 0 217)"  d="M330 217.5L330 217.5L330 217.5L330 112.5L330 112.5L225 112.5L225 112.5L225 217.5z" stroke="#FFFFFF" stroke-width="0.75" fill="#FDE9D4" fill-rule="nonzero" />
    <path id=""  transform="matrix(1 0 0 -1 0 217)"  d="M303.2665 137.95044C 310.5888 145.27277 314.25 154.1116 314.25 164.46695L314.25 164.46695L314.25 164.46695C 314.25 174.8223 310.58884 183.66113 303.26648 190.98346L303.26648 190.98346L303.26648 190.98346C 295.94415 198.30579 287.10535 201.96695 276.75 201.96695L276.75 201.96695L276.75 201.96695C 266.39465 201.96695 257.55582 198.30577 250.23349 190.98344L250.23349 190.98344L250.23349 190.98344C 242.91116 183.6611 239.24998 174.82228 239.24998 164.46693L239.24998 164.46693L239.24998 164.46693C 239.25 154.11159 242.91116 145.27277 250.23349 137.95042L250.23349 137.95042L250.23349 137.95042C 257.55582 130.6281 266.39465 126.966934 276.75 126.96695L276.75 126.96695L276.75 126.96695C 287.10535 126.96695 295.94415 130.6281 303.2665 137.95044" stroke="#FFFFFF" stroke-width="1" fill="#236967" fill-rule="evenodd" />
    <path id=""  transform="matrix(1 0 0 -1 0 217)"  d="M303.26624 190.98367C 296.23425 198.01628 286.69574 201.9672 276.75 201.9672L276.75 201.9672L276.75 201.9672C 266.80426 201.9672 257.26575 198.01628 250.23373 190.98367L250.23373 190.98367L250.23373 190.98367C 243.201 183.95108 239.25 174.4128 239.25 164.4672L239.25 164.4672L239.25 164.4672C 239.25 154.52153 243.201 144.98325 250.23373 137.9505L250.23373 137.9505L276.75 164.4672L276.75 164.4672L303.26624 190.98367z" stroke="#FFFFFF" stroke-width="1" fill="#FFFFFF" fill-rule="nonzero" />
    <path id=""  transform="matrix(1 0 0 -1 0 217)"  d="M303.26624 190.98367C 296.23425 198.01628 286.69574 201.9672 276.75 201.9672L276.75 201.9672L276.75 201.9672C 266.80426 201.9672 257.26575 198.01628 250.23373 190.98367L250.23373 190.98367L250.23373 190.98367C 243.201 183.95108 239.25 174.4128 239.25 164.4672L239.25 164.4672L239.25 164.4672C 239.25 154.52153 243.201 144.98325 250.23373 137.9505L250.23373 137.9505L276.75 164.4672L276.75 164.4672L303.26624 190.98367z" stroke="#000000" stroke-width="15" fill="#FFCC1A" fill-rule="nonzero" />
    <path id=""  transform="matrix(1 0 0 -1 0 217)"  d="M105 -1.5258789E-05L105 -1.5258789E-05L105 -1.5258789E-05L105 104.999985L105 104.999985L0 104.999985L0 104.999985L0 -1.5258789E-05z" stroke="#FFFFFF" stroke-width="0.75" fill="#FDE9D4" fill-rule="nonzero" />
    <path id=""  transform="matrix(1 0 0 -1 0 217)"  d="M-3 29.939837C 1.13381 29.939837 4.6622376 28.478313 7.5852823 25.555267L7.5852823 25.555267L7.5852823 25.555267C 10.5083275 22.632223 11.969851 19.103796 11.969851 14.969986L11.969851 14.969986L11.969851 14.969986C 11.969851 10.836176 10.5083275 7.3077483 7.5852823 4.3847036L7.5852823 4.3847036L7.5852823 4.3847036C 4.6622376 1.4616585 1.13381 0.00013542175 -3 0.00013542175L-3 0.00013542175L-3 0.00013542175C -7.13381 0.00013542175 -10.662237 1.4616585 -13.585282 4.3847036L-13.585282 4.3847036L-13.585282 4.3847036C -16.508327 7.3077483 -17.96985 10.836176 -17.96985 14.969986L-17.96985 14.969986L-17.96985 14.969986C -17.96985 19.103796 -16.508327 22.632223 -13.585282 25.555267L-13.585282 25.555267L-13.585282 25.555267C -10.662237 28.478313 -7.13381 29.939837 -3 29.939837" stroke="#FFFFFF" stroke-width="1" fill="#FE7167" fill-rule="evenodd" />
    <path id=""  transform="matrix(1 0 0 -1 0 217)"  d="M-3 55.24109C 1.13381 55.24109 4.6622376 53.779568 7.5852823 50.85652L7.5852823 50.85652L7.5852823 50.85652C 10.5083275 47.93348 11.969851 44.405052 11.969851 40.27124L11.969851 40.27124L11.969851 40.27124C 11.969851 36.13743 10.5083275 32.609 7.5852823 29.685959L7.5852823 29.685959L7.5852823 29.685959C 4.6622376 26.762913 1.13381 25.30139 -3 25.30139L-3 25.30139L-3 25.30139C -7.13381 25.30139 -10.662237 26.762913 -13.585282 29.685959L-13.585282 29.685959L-13.585282 29.685959C -16.508327 32.609 -17.96985 36.13743 -17.96985 40.27124L-17.96985 40.27124L-17.96985 40.27124C -17.96985 44.405052 -16.508327 47.93348 -13.585282 50.85652L-13.585282 50.85652L-13.585282 50.85652C -10.662237 53.779568 -7.13381 55.24109 -3 55.24109" stroke="#FFFFFF" stroke-width="1" fill="#FE7167" fill-rule="evenodd" />
    <path id=""  transform="matrix(1 0 0 -1 0 217)"  d="M-3 80.54233C 1.13381 80.54233 4.6622376 79.08081 7.5852823 76.15776L7.5852823 76.15776L7.5852823 76.15776C 10.5083275 73.23472 11.969851 69.70629 11.969851 65.57248L11.969851 65.57248L11.969851 65.57248C 11.969851 61.438667 10.5083275 57.91024 7.5852823 54.987198L7.5852823 54.987198L7.5852823 54.987198C 4.6622376 52.06415 1.13381 50.60263 -3 50.60263L-3 50.60263L-3 50.60263C -7.13381 50.60263 -10.662237 52.06415 -13.585282 54.987198L-13.585282 54.987198L-13.585282 54.987198C -16.508327 57.91024 -17.96985 61.438667 -17.96985 65.57248L-17.96985 65.57248L-17.96985 65.57248C -17.96985 69.70629 -16.508327 73.23472 -13.585282 76.15776L-13.585282 76.15776L-13.585282 76.15776C -10.662237 79.08081 -7.13381 80.54233 -3 80.54233" stroke="#FFFFFF" stroke-width="1" fill="#FE7167" fill-rule="evenodd" />
    <path id=""  transform="matrix(1 0 0 -1 0 217)"  d="M-3 104.99984C 1.13381 104.99984 4.6622376 103.538315 7.5852823 100.61527L7.5852823 100.61527L7.5852823 100.61527C 10.5083275 97.69223 11.969851 94.1638 11.969851 90.02999L11.969851 90.02999L11.969851 90.02999C 11.969851 85.89618 10.5083275 82.36775 7.5852823 79.44471L7.5852823 79.44471L7.5852823 79.44471C 4.6622376 76.52167 1.13381 75.06014 -3 75.06014L-3 75.06014L-3 75.06014C -7.13381 75.06014 -10.662237 76.52167 -13.585282 79.44471L-13.585282 79.44471L-13.585282 79.44471C -16.508327 82.36775 -17.96985 85.89618 -17.96985 90.02999L-17.96985 90.02999L-17.96985 90.02999C -17.96985 94.1638 -16.508327 97.69223 -13.585282 100.61527L-13.585282 100.61527L-13.585282 100.61527C -10.662237 103.538315 -7.13381 104.99984 -3 104.99984" stroke="#FFFFFF" stroke-width="1" fill="#FE7167" fill-rule="evenodd" />
    <path id=""  transform="matrix(1 0 0 -1 0 217)"  d="M0 0C 13.923767 0 27.277496 5.53125 37.123474 15.377243L37.123474 15.377243L37.123474 15.377243C 46.96875 25.222504 52.5 38.57625 52.5 52.5L52.5 52.5L52.5 52.5C 52.5 66.42375 46.96875 79.7775 37.123474 89.62274L37.123474 89.62274L37.123474 89.62274C 27.277496 99.46875 13.923767 105 0 105L0 105L0 105L0 105L0 95.331L0 95.331L0 95.331C 11.359497 95.331 22.253998 90.819 30.286499 82.7865L30.286499 82.7865L30.286499 82.7865C 38.31897 74.754 42.831757 63.859497 42.831757 52.5L42.831757 52.5L42.831757 52.5C 42.831757 41.140503 38.31897 30.246002 30.286499 22.213501L30.286499 22.213501L30.286499 22.213501C 22.253998 14.181 11.359497 9.669006 0 9.669006L0 9.669006L0 9.669006L0 9.669006L0 0z" stroke="#FFFFFF" stroke-width="1" fill="#FE7167" fill-rule="nonzero" />
    <path id=""  transform="matrix(1 0 0 -1 0 217)"  d="M79.5 67.499985C 83.642136 67.499985 87.17767 66.03552 90.1066 63.106586L90.1066 63.106586L90.1066 63.106586C 93.03554 60.177654 94.5 56.64212 94.5 52.499985L94.5 52.499985L94.5 52.499985C 94.5 48.35785 93.03554 44.822315 90.1066 41.893383L90.1066 41.893383L90.1066 41.893383C 87.17767 38.96445 83.642136 37.499985 79.5 37.499985L79.5 37.499985L79.5 37.499985C 75.357864 37.499985 71.82233 38.96445 68.8934 41.893383L68.8934 41.893383L68.8934 41.893383C 65.96446 44.822315 64.5 48.35785 64.5 52.499985L64.5 52.499985L64.5 52.499985C 64.5 56.64212 65.96446 60.177654 68.8934 63.106586L68.8934 63.106586L68.8934 63.106586C 71.82233 66.03552 75.357864 67.499985 79.5 67.499985" stroke="#FFFFFF" stroke-width="1" fill="#FC8B4C" fill-rule="evenodd" />
    <path id=""  transform="matrix(1 0 0 -1 0 217)"  d="M217.5 105L217.5 105L217.5 105L217.5 0L217.5 0L112.5 0L112.5 0L112.5 105z" stroke="#FFFFFF" stroke-width="0.75" fill="#236967" fill-rule="nonzero" />
    <path id=""  transform="matrix(1 0 0 -1 0 217)"  d="M159 52.5L159 52.5L159 52.5L112.5 27.75L112.5 27.75L112.5 27.75L112.5 27.75L112.5 77.25L112.5 77.25L159 52.5z" stroke="#FFFFFF" stroke-width="1" fill="#FC8B4C" fill-rule="nonzero" />
    <path id=""  transform="matrix(1 0 0 -1 0 217)"  d="M168 52.5C 161.0505 49.928253 155.57175 44.44951 153 37.5L153 37.5L153 37.5C 150.42825 44.44951 144.9495 49.928253 138 52.5L138 52.5L138 52.5C 144.9495 55.071747 150.42825 60.55049 153 67.5L153 67.5L153 67.5C 155.57175 60.55049 161.0505 55.071747 168 52.5z" stroke="#FFFFFF" stroke-width="1" fill="#FDE9D4" fill-rule="nonzero" />
    <path id=""  transform="matrix(1 0 0 -1 0 217)"  d="M217.5 52.5C 205.33875 48 195.75 38.411255 191.25 26.25L191.25 26.25L191.25 26.25C 186.75 38.411255 177.16125 48 165 52.5L165 52.5L165 52.5C 177.16125 57 186.75 66.588745 191.25 78.75L191.25 78.75L191.25 78.75C 195.75 66.588745 205.33875 57 217.5 52.5z" stroke="#FFFFFF" stroke-width="1" fill="#FDE9D4" fill-rule="nonzero" />
    <path id=""  transform="matrix(1 0 0 -1 0 217)"  d="M105 217.5L105 217.5L105 217.5L105 112.5L105 112.5L0 112.5L0 112.5L0 217.5z" stroke="#FFFFFF" stroke-width="0.75" fill="#236967" fill-rule="nonzero" />
    <path id=""  transform="matrix(1 0 0 -1 0 217)"  d="M105 112.5C 91.07623 112.5 77.7225 118.03125 67.87726 127.87725L67.87726 127.87725L67.87726 127.87725C 58.03125 137.7225 52.5 151.0761 52.5 165L52.5 165L52.5 165C 52.5 178.92383 58.03125 192.27742 67.87726 202.12312L67.87726 202.12312L67.87726 202.12312C 77.7225 211.96877 91.07623 217.5 105 217.5L105 217.5L105 165L105 165L105 165L105 165L105 112.5z" stroke="#FFFFFF" stroke-width="1" fill="#FFCC1A" fill-rule="nonzero" />
    <path id=""  transform="matrix(1 0 0 -1 0 217)"  d="M43.125 166.99988L43.125 166.99988L43.125 166.99988L43.125 161.49988L43.125 161.49988L6.375 161.49988L6.375 161.49988L6.375 166.99988z" stroke="#FDE9D4" stroke-width="0.75" fill="none" />
    <path id=""  transform="matrix(1 0 0 -1 0 217)"  d="M35.79831 179.18765L35.79831 179.18765L35.79831 179.18765L39.687378 175.29858L39.687378 175.29858L13.701202 149.31238L13.701202 149.31238L9.812134 153.20145z" stroke="#FDE9D4" stroke-width="0.75" fill="none" />
    <path id=""  transform="matrix(1 0 0 -1 0 217)"  d="M35.79828 149.31232L35.79828 149.31232L35.79828 149.31232L39.687366 153.2014L39.687366 153.2014L13.7011795 179.18759L13.7011795 179.18759L9.812094 175.2985z" stroke="#FDE9D4" stroke-width="0.7500002" fill="none" />
    <path id=""  transform="matrix(1 0 0 -1 0 217)"  d="M21.99974 182.62494L21.99974 182.62494L21.99974 182.62494L27.499737 182.62494L27.499737 182.62494L27.499737 145.87494L27.499737 145.87494L21.99974 145.87494z" stroke="#FDE9D4" stroke-width="0.74999994" fill="none" />
    <path id=""  transform="matrix(1 0 0 -1 0 217)"  d="M330 105L330 105L330 105L330 0L330 0L225 0L225 0L225 105z" stroke="#FFFFFF" stroke-width="0.75" fill="#FFCC1A" fill-rule="nonzero" />
    <path id=""  transform="matrix(1 0 0 -1 0 217)"  d="M317.61224 100.567505L317.61224 100.567505L317.61224 100.567505L325.56717 92.61255L325.56717 92.61255L293.74738 60.79274L293.74738 60.79274L285.79242 68.74768z" stroke="#FFFFFF" stroke-width="0.75" fill="#FDE9D4" fill-rule="nonzero" />
    <path id=""  transform="matrix(1 0 0 -1 0 217)"  d="M285.79276 92.61226L285.79276 92.61226L285.79276 92.61226L293.7477 100.567215L293.7477 100.567215L325.5675 68.747406L325.5675 68.747406L317.61255 60.79245z" stroke="#FFFFFF" stroke-width="0.75" fill="#FDE9D4" fill-rule="nonzero" />
    <path id=""  transform="matrix(1 0 0 -1 0 217)"  d="M261.47324 100.567474L261.47324 100.567474L261.47324 100.567474L269.4282 92.61253L269.4282 92.61253L237.6084 60.792725L237.6084 60.792725L229.65344 68.74768z" stroke="#FFFFFF" stroke-width="0.75" fill="#FDE9D4" fill-rule="nonzero" />
    <path id=""  transform="matrix(1 0 0 -1 0 217)"  d="M229.65376 92.61227L229.65376 92.61227L229.65376 92.61227L237.60872 100.56722L237.60872 100.56722L269.42853 68.74741L269.42853 68.74741L261.47357 60.792458z" stroke="#FFFFFF" stroke-width="0.75" fill="#FDE9D4" fill-rule="nonzero" />
    <path id=""  transform="matrix(1 0 0 -1 0 217)"  d="M317.6122 44.427734L317.6122 44.427734L317.6122 44.427734L325.56717 36.472794L325.56717 36.472794L293.74738 4.6529846L293.74738 4.6529846L285.79242 12.607941z" stroke="#FFFFFF" stroke-width="0.75" fill="#FDE9D4" fill-rule="nonzero" />
    <path id=""  transform="matrix(1 0 0 -1 0 217)"  d="M285.79276 36.47325L285.79276 36.47325L285.79276 36.47325L293.7477 44.428207L293.7477 44.428207L325.5675 12.608398L325.5675 12.608398L317.61255 4.6534424z" stroke="#FFFFFF" stroke-width="0.75" fill="#FDE9D4" fill-rule="nonzero" />
    <path id=""  transform="matrix(1 0 0 -1 0 217)"  d="M261.47324 44.427734L261.47324 44.427734L261.47324 44.427734L269.4282 36.47278L269.4282 36.47278L237.6084 4.652954L237.6084 4.652954L229.65344 12.60791z" stroke="#FFFFFF" stroke-width="0.75" fill="#FDE9D4" fill-rule="nonzero" />
    <path id=""  transform="matrix(1 0 0 -1 0 217)"  d="M229.65372 36.47325L229.65372 36.47325L229.65372 36.47325L237.60867 44.428207L237.60867 44.428207L269.4285 12.608398L269.4285 12.608398L261.47354 4.6534424z" stroke="#FFFFFF" stroke-width="0.75" fill="#FDE9D4" fill-rule="nonzero" />
    <path id=""  transform="matrix(1 0 0 -1 0 217)"  d="M337.5 217.49998L337.5 217.49998L337.5 217.49998L337.5 112.499985L337.5 112.499985L442.5 112.499985L442.5 112.499985L442.5 217.49998z" stroke="#FFFFFF" stroke-width="0.75" fill="#FE7167" fill-rule="nonzero" />
    <path id=""  transform="matrix(1 0 0 -1 0 217)"  d="M408.75 165L408.75 165L408.75 165L371.25 187.5L371.25 187.5L371.25 187.5L371.25 187.5L371.25 142.5L371.25 142.5L408.75 165z" stroke="#FFFFFF" stroke-width="1" fill="#FDE9D4" fill-rule="nonzero" />
    <path id=""  transform="matrix(1 0 0 -1 0 217)"  d="M337.5 174.74998L337.5 174.74998L337.5 174.74998L337.5 155.24998L337.5 155.24998L371.25 155.24998L371.25 155.24998L371.25 174.74998z" stroke="#FFFFFF" stroke-width="0.75" fill="#000000" fill-rule="nonzero" />
    <path id=""  transform="matrix(1 0 0 -1 0 217)"  d="M427.5 157.49998C 425.42892 157.49998 423.66116 158.23222 422.1967 159.69669L422.1967 159.69669L422.1967 159.69669C 420.73224 161.16115 420 162.92892 420 164.99998L420 164.99998L420 164.99998C 420 167.07104 420.73224 168.83882 422.1967 170.30328L422.1967 170.30328L422.1967 170.30328C 423.66116 171.76775 425.42892 172.49998 427.5 172.49998L427.5 172.49998L427.5 172.49998C 429.57108 172.49998 431.33884 171.76775 432.8033 170.30328L432.8033 170.30328L432.8033 170.30328C 434.26776 168.83882 435 167.07104 435 164.99998L435 164.99998L435 164.99998C 435 162.92892 434.26776 161.16115 432.8033 159.69669L432.8033 159.69669L432.8033 159.69669C 431.33884 158.23222 429.57108 157.49998 427.5 157.49998" stroke="#FFFFFF" stroke-width="1" fill="#000000" fill-rule="evenodd" />
    <path id=""  transform="matrix(1 0 0 -1 0 217)"  d="M427.5 134.99998C 425.42892 134.99998 423.66116 135.73222 422.1967 137.19669L422.1967 137.19669L422.1967 137.19669C 420.73224 138.66115 420 140.42892 420 142.49998L420 142.49998L420 142.49998C 420 144.57104 420.73224 146.33882 422.1967 147.80328L422.1967 147.80328L422.1967 147.80328C 423.66116 149.26775 425.42892 149.99998 427.5 149.99998L427.5 149.99998L427.5 149.99998C 429.57108 149.99998 431.33884 149.26775 432.8033 147.80328L432.8033 147.80328L432.8033 147.80328C 434.26776 146.33882 435 144.57104 435 142.49998L435 142.49998L435 142.49998C 435 140.42892 434.26776 138.66115 432.8033 137.19669L432.8033 137.19669L432.8033 137.19669C 431.33884 135.73222 429.57108 134.99998 427.5 134.99998" stroke="#FFFFFF" stroke-width="1" fill="#000000" fill-rule="evenodd" />
    <path id=""  transform="matrix(1 0 0 -1 0 217)"  d="M427.5 179.99998C 425.42892 179.99998 423.66116 180.73222 422.1967 182.19669L422.1967 182.19669L422.1967 182.19669C 420.73224 183.66115 420 185.42892 420 187.49998L420 187.49998L420 187.49998C 420 189.57104 420.73224 191.33882 422.1967 192.80328L422.1967 192.80328L422.1967 192.80328C 423.66116 194.26775 425.42892 194.99998 427.5 194.99998L427.5 194.99998L427.5 194.99998C 429.57108 194.99998 431.33884 194.26775 432.8033 192.80328L432.8033 192.80328L432.8033 192.80328C 434.26776 191.33882 435 189.57104 435 187.49998L435 187.49998L435 187.49998C 435 185.42892 434.26776 183.66115 432.8033 182.19669L432.8033 182.19669L432.8033 182.19669C 431.33884 180.73222 429.57108 179.99998 427.5 179.99998" stroke="#FFFFFF" stroke-width="1" fill="#000000" fill-rule="evenodd" />
    <path id=""  transform="matrix(1 0 0 -1 0 217)"  d="M442.5 105L442.5 105L442.5 105L442.5 0L442.5 0L442.5 0L442.5 0L337.5 0L337.5 0L337.5 0L337.5 0L337.5 105L337.5 105L337.5 105L337.5 105L442.5 105z" stroke="#FFFFFF" stroke-width="1" fill="#FDE9D4" fill-rule="nonzero" />
    <path id=""  transform="matrix(1 0 0 -1 0 217)"  d="M390 105C 418.99493 105 442.5 81.494995 442.5 52.5L442.5 52.5L442.5 52.5L442.5 52.5L337.5 52.5L337.5 52.5L337.5 52.5C 337.5 81.494995 361.005 105 390 105z" stroke="#FFFFFF" stroke-width="1" fill="#236967" fill-rule="nonzero" />
    <path id=""  transform="matrix(1 0 0 -1 0 217)"  d="M389.73376 78.75L389.73376 78.75L389.73376 78.75L416.25024 52.23349L416.25024 52.23349L389.73376 25.71698L389.73376 25.71698L363.21725 52.23349z" stroke="#FFFFFF" stroke-width="0.75" fill="#FE7167" fill-rule="nonzero" />
    <path id=""  transform="matrix(1 0 0 -1 0 217)"  d="M390.00015 47.25C 391.4499 47.25 392.68732 47.762558 393.71246 48.78769L393.71246 48.78769L393.71246 48.78769C 394.73758 49.812805 395.25015 51.050247 395.25015 52.5L395.25015 52.5L395.25015 52.5C 395.25015 53.949738 394.73758 55.18718 393.71246 56.21231L393.71246 56.21231L393.71246 56.21231C 392.68732 57.237427 391.4499 57.75 390.00015 57.75L390.00015 57.75L390.00015 57.75C 388.5504 57.75 387.31296 57.237427 386.28784 56.21231L386.28784 56.21231L386.28784 56.21231C 385.2627 55.18718 384.75015 53.949738 384.75015 52.5L384.75015 52.5L384.75015 52.5C 384.75015 51.050247 385.2627 49.812805 386.28784 48.78769L386.28784 48.78769L386.28784 48.78769C 387.31296 47.762558 388.5504 47.25 390.00015 47.25" stroke="#FFFFFF" stroke-width="1" fill="#000000" fill-rule="evenodd" />
	</g>
</g>
</svg>