<svg width="14" height="14" fill="none" xmlns="http://www.w3.org/2000/svg"><path d="M2.219 2.504C3.555 1.168 5.149.5 7 .5c1.852 0 3.434.668 4.746 2.004 1.336 1.312 2.004 2.894 2.004 4.746 0 1.852-.668 3.445-2.004 4.781C10.434 13.344 8.852 14 7 14c-1.852 0-3.445-.656-4.781-1.969C.906 10.695.25 9.101.25 7.25c0-1.852.656-3.434 1.969-4.746zm8.754.773C9.87 2.176 8.547 1.625 7 1.625c-1.547 0-2.871.55-3.973 1.652C1.926 4.38 1.375 5.703 1.375 7.25c0 1.547.55 2.871 1.652 3.973C4.13 12.324 5.453 12.875 7 12.875c1.547 0 2.871-.55 3.973-1.652 1.101-1.102 1.652-2.426 1.652-3.973 0-1.547-.55-2.871-1.652-3.973zM6.437 2.75h1.125v3.938h2.813v1.125H6.437V2.75z" fill="#A9AEB8"/></svg>