<svg width="12" height="16" fill="none" xmlns="http://www.w3.org/2000/svg"><path d="M2.414 2.414C3.398 1.43 4.594.937 6 .937c1.406 0 2.602.493 3.586 1.477.984.984 1.476 2.18 1.476 3.586 0 .656-.257 1.547-.773 2.672-.375.914-.89 1.922-1.547 3.023a30.65 30.65 0 01-1.09 1.793c-.375.61-.668 1.067-.879 1.371l-.316.457-.457.668-.457-.668a46.153 46.153 0 01-2.285-3.62c-.656-1.102-1.172-2.11-1.547-3.024C1.195 7.547.937 6.656.937 6c0-1.406.493-2.602 1.477-3.586zm6.363.809c-.75-.774-1.675-1.16-2.777-1.16s-2.04.386-2.813 1.16c-.75.75-1.124 1.675-1.124 2.777 0 .492.21 1.242.632 2.25.352.773.868 1.734 1.547 2.883A49.178 49.178 0 006 13.945a49.178 49.178 0 001.758-2.812c.68-1.149 1.195-2.11 1.547-2.883.422-1.008.633-1.758.633-2.25 0-1.102-.387-2.027-1.16-2.777zM5.191 5.227A1.11 1.11 0 016 4.875c.305 0 .563.117.773.352.235.21.352.468.352.773s-.117.574-.352.809c-.21.21-.468.316-.773.316s-.574-.105-.809-.316A1.173 1.173 0 014.875 6c0-.305.105-.563.316-.773z" fill="#A9AEB8"/></svg>