<svg width="16" height="16" fill="none" xmlns="http://www.w3.org/2000/svg"><path d="M3.043 1.219c.258-.188.527-.282.809-.282a1.4 1.4 0 01.843.282l.035.035.036.035 2.25 2.32.035.036-.035.035c.257.21.386.492.386.843 0 .329-.117.61-.351.844L5.926 6.492c.398.914.926 1.688 1.582 2.32a8.185 8.185 0 002.285 1.547l1.09-1.09.035-.035c.234-.21.527-.316.879-.316.351 0 .644.105.879.316l.035.07 2.25 2.25c.234.235.351.528.351.88 0 .351-.117.644-.351.879l-1.723 1.757h-.035c-.586.516-1.242.657-1.969.422-2.53-1.008-4.664-2.367-6.398-4.078C2.96 9.516 1.602 7.383.758 5.016.5 4.266.664 3.633 1.25 3.117v-.035l1.758-1.793v-.035l.035-.035zm.95.914c-.048-.047-.095-.07-.141-.07-.024 0-.059.023-.106.07L2.023 3.855v.036c-.234.187-.304.433-.21.738.773 2.203 2.05 4.195 3.832 5.976 1.593 1.594 3.574 2.86 5.94 3.797a.814.814 0 00.88-.175l1.723-1.688c.046-.07.046-.129 0-.176l-2.32-2.285c-.048-.07-.095-.07-.141 0l-1.407 1.406-.28.246-.352-.175A9.519 9.519 0 016.84 9.727l-.106-.106a6.707 6.707 0 01-1.125-1.3c-.328-.516-.562-.938-.703-1.266l-.21-.457-.106-.352L4.836 6l1.406-1.406c.07-.047.094-.094.07-.14h-.035l-.035-.036-2.25-2.285z" fill="#A9AEB8"/></svg>