<svg width="100" height="104" fill="none" xmlns="http://www.w3.org/2000/svg"><path fill-rule="evenodd" clip-rule="evenodd" d="M5.055 34.145c1.14-.388 2.534-.255 3.88-.194.933-.958 1.794-2.4 2.994-2.825h-.388c.473-.46 1.733-.254 2.788-.254l3.334-.037c-1.249-3.855-1.697-8.764-.982-13.42.448-2.945.788-5.915 1.394-8.546.218-.97.352-1.903.594-2.727.533-1.855 1.515-2.91 2.291-4.364.388-.728.449-1.528 1.152-1.722.982-.266 1.552.46 2.11 1.225.472.642 1.042 1.163 1.333 1.697.788 1.43.788 2.933 1.054 4.57.376 2.34 1.467 4.8 2.013 7.431.581 2.74.327 5.686.86 8.607-.206.206.049 1.685.024 2.412-.048 1.916-.787 3.48-1.115 4.983 2.34-.134 5.007.46 6.983-.073.327.194.679.352 1.248.303.51.618 1.322.946 1.492 1.928.23 1.309.109 3.357.133 5.273.024 1.952-.073 3.952-.024 5.516.654.436 1.721.436 2.412.824 1.018-3.067 3.528-6.74 7.71-5.273 1.382.485 2.376 1.964 3.83 2.751 1.746.958 3.37 1.395 5.225 1.964 1.091 1.043 1.867 2.388 2.522 3.855 8.57-3.624 17.602-7.346 26.124-11.043 1.115-.485 2.91-1.54 3.94-1.43.897.084 1.467 1.211 1.89 2.23 2.11 5.176 4.038 10.17 6.05 15.153.51 1.26.727 2.727 1.66 3.164-.169.436-.242.655.013 1.09-.412.183-.764.583-.606 1.092-.68.327-1.152 1.018-1.697 1.576-1.746 1.77-3.71 3.346-5.77 4.716-6.329 4.073-13.105 8.025-21.64 9.916-2.836.63-5.842 1.115-9.067 1.018-.049-.34-.485-.291-.86-.376-.886-.218-2.11-.327-2.959-.594-.848-1.842-1.879-3.382-2.533-5.249-1.346-3.819-2.68-7.88-4.073-11.759-.982-.363-1.625-1.479-2.498-1.685.328 11.577-.157 23.094-.048 34.622.012 1.806.036 3.794-.17 5.674-.206 1.745-.315 3.939-1.2 4.667-.23.181-.497.157-.849.315-.836.4-1.563.909-2.545 1.115-3.698.776-8.074.703-12.256.74-5.334.048-10.862.242-16.063.084-2.642-.072-5.273-.521-7.77-.387-.424.024-.655.181-1.006.169-.727-.036-3.007-.836-3.588-1.212-.813-.533-1.249-2.073-1.43-3.249-.643-3.988-.158-8.631-.207-12.959-.036-4.28.146-8.837.11-13.201-.025-2.788-.292-5.916-.328-9.153-.024-2.242-.024-4.752.17-6.752.072-.8.048-1.624.206-2.182.218-.764 1.224-1.673 1.842-2.194.873-.74 1.88-1.176 2.704-1.964-.413 0-.837-.218-1.164-.46C2.824 48.51.46 45.915.134 43.915c-.728-4.34 1.6-8.656 4.921-9.771z" fill="#30333B"/><path fill-rule="evenodd" clip-rule="evenodd" d="M19.3 22.822c.254-.424.75-.836.605-1.406.74-.34 1.164-.933 2.085-.873 1.661.121 3.625 3.467 3.856 5.092.048.315-.025.497.012.703.424.509.751 1.103 1.103 1.697.897-1.297-.667-2.255-.958-3.334.473.097.837.97 1.176 1.467.424-1.6-.4-2.63-.97-3.48.497.05.546.534.86.765-.06-1.188-.314-2.873-.423-4.268-.57-.57-1.152-1.127-2.037-1.381.11.69.885 1.054.8 1.697-1.176-.376-1.54-2.28-2.97-1.989-.388.073-1.976 1.455-2.303 2.05-.521.896-.655 2.266-.837 3.26zm8.061-1.939c-.133 1.09.291 2.315.34 3.491.278-1.248-.085-2.534-.34-3.491z" fill="#EEF1F5"/><path fill-rule="evenodd" clip-rule="evenodd" d="M21.239 22.81c-.073.036-.146.073-.158.158 1.176 1.333 2.643 2.363 3.686 3.843-.158-.788-.922-1.395-1.504-2-.642-.704-1.442-1.274-2.024-2zm1.794.218c.11.23.364.316.473.534.145-.182-.242-.485-.473-.534zm-2.243.485c1.285 1.564 2.91 2.789 4.073 4.461.121-.97-1.055-1.733-1.648-2.315-.764-.752-1.564-1.479-2.267-2.23-.097-.012-.146.024-.158.084zm-.314.618c.12.606.763.849 1.175 1.225.788.74 1.516 1.612 2.28 2.46.351.389.666.861 1.103 1.08.085-.655-.607-.946-.946-1.31-1.091-1.163-2.17-2.376-3.37-3.54-.133-.012-.133.085-.242.085zm-.206 1.637c-.619.74.375 1.164.787 1.54.243.036.28-.146.546-.085-.437-.497-.946-.921-1.334-1.455zm-.231 1.006c-.388.655.363 1.37 1.103 1.382-.243.328-.049.449.157.704.425-1.007-.945-1.322-1.26-2.086zm6.146.643c-.133-.012-.157.097-.315.085-.158.812.436 1.2.715 1.782.667-.703-.145-1.26-.4-1.867zm-4.898.121c.497.582 1.055 1.128 1.564 1.697.024-.8-.521-1.709-1.564-1.697zm-1.393.255c-.315.157-.206.727-.303 1.09.182.037.206.34.388.158.073-.34-.267-.255-.243-.545.11-.158.267.29.546.23.036-.073.06-.146.157-.158-.096-.351-.375-.509-.545-.776zm5.903.873c-.558.545.145 1.212.4 1.624.715-.533-.328-.97-.4-1.624zm-3.867.108c-.181.243.025.752.17.934.049-.291.097-.74-.17-.934zm-1.176.013c-.364.133.037.436.085.618.206-.134.036-.546-.085-.618zm-1.151.327c-.182.024-.036.34 0 .388.267-.06.085-.28 0-.388zm3.187.509c-.194.303-.048.933.17 1.079.182-.303.037-.934-.17-1.079zm1.322.218c-.4.74.437 1.043.715 1.54.328-.788-.485-1.067-.715-1.54zm1.321.304c-.036.509.012.92.243 1.163.181-.133.218-.4.388-.545-.195-.23-.207-.643-.63-.618zm-3.333.108c-.158.073-.073.546 0 .619.157-.073.072-.546 0-.619zm1.94.68c-.267.109-.377.703-.146.86.157-.024.012-.34.145-.388.34-.085.255.255.546.23-.146-.278-.449-.387-.546-.702zm-4.353.121c-.351.279.06.788.243 1.006.145-.243-.085-.788-.243-1.006zm3.116.048c-.206.17 0 .57.085.703.242-.23.109-.545-.085-.703zm2.642.121c-.145.194-.06.606-.23.776-.436-.242-.642.036-.776.473.11.072.158.206.23.315.243 0 .376-.097.546-.158-.085-.606.643-.97.23-1.406zm-8.001.546c-.024.206-.23.23-.23.473.388.254.679.618 1.321.606-.303-.413-.218-1.237-1.09-1.08zm6.22.254c-.328.17-.255.752.157.776.194-.424-.218-.315-.157-.776zm9.394.134c-.46-.194-.703.485-1.079.63.352.097.655-.533 1.08-.63zm-1.091.012c-.545-.254-.715.533-1.163.63.557.255.751-.497 1.163-.63zm-1.164.012c-.97-.254-1.915.182-2.945.11-.085.242-.255.412-.303.702 1.151 0 2.751.061 3.248-.812zM16.45 32.4c.098.242.316.363.631.387-.17-.182-.242-.436-.63-.388zm9.626.218c-.17.084-.255.254-.46.315.193.242.46-.11.46-.315zm-3.492.108h-.23v.23h.303a.399.399 0 01-.073-.23zm-6.813 1.625c.049 4.097-.29 8.837-.181 12.656.4-.473.254-1.188.29-1.794.207-3.43.328-7.286.595-10.644 0-.109.012-.218-.085-.23-.206.012-.412.012-.619.012zm-.861.012c-.096 1.612-.048 3.297-.108 4.97-.097 2.667-.206 5.358-.158 7.613.4-.157.267-.945.303-1.406.206-3.467.267-7.42.437-10.947.254-.206-.23-.29-.473-.23zm-1.235.085c.315 3.879-.037 8.8.12 12.425.45-.218.365-.909.377-1.321.145-3.455.218-7.431.436-10.947-.012-.448-.679-.17-.933-.157zm-1.637-.061c-.06-.012-.072.036-.072.073.06 3.649-.255 7.358-.207 11.104 0 .388-.206 1.091.328 1.237.594-.085.376-.861.376-1.249.036-3.503-.061-7.928-.182-11.104-.122.024-.219.024-.243-.06zm1.249.061h-.304c-.206 3.224.11 8.134.194 11.492.134-3.685.194-7.455.207-11.262-.013-.109-.013-.218-.097-.23zm-3.347.036c-.12-.024-.133.073-.23.085-.788 1.212-1.212 2.594-1.976 3.903-.92 1.576-2.073 3.03-1.733 5.528.23-2.934 1.612-4.861 2.885-6.934.51-.837 1.055-1.334 1.055-2.582zm-2.012.558c-.812 0-1.37.242-1.927.485.679.194 1.843.315 1.927-.485zm27.409.352c-.133 2.618.194 5.54-.072 8.146.424-2.51.509-5.346.618-8.159-.182.013-.364.013-.546.013zm-2.012.109c.145 4.218-.17 7.976-.352 11.88.546 0 1.091-.013 1.637-.013.182-3.794.29-7.66.194-11.722.194-.412-1.188-.242-1.48-.145zm-.545-.073c-.51.17-.146 1.358-.134 1.867.061 3.103-.46 7.019-.29 10.098.472-.085.278-.667.302-.934.316-3.394.291-7.164.364-10.789 0-.133-.06-.206-.157-.23-.037-.024-.061-.024-.085-.012zm-1.236.085c.109 3.879.17 8.158.194 11.88.388-1.77.339-3.83.412-5.831.06-1.988.182-4.013.17-5.977.096-.242-.437-.024-.776-.072zm-.704-.073c-.412.303-.218 1.127-.218 1.782.012 1.418-.255 3.103.497 3.722.182-1.661-.073-3.758.097-5.431-.206.072-.194-.11-.376-.073zm-3.576.036c-.085.703.243 1.83-.206 2.17-.424-.4-.097-1.564-.327-2.17-.424.194-.218.837-.218 1.164.012 3.637-.049 7.673-.28 10.789h.389c.266-1.2.133-2.776.109-4.267-.012-1.516-.218-3.08.194-4.195.424.267.242.91.242 1.322.024 2.279.06 4.982-.085 7.14.703-.012 1.395-.012 2.098-.024-.17-1.285.412-2.764.12-3.964-.096-.376-.484-.51-.63-.849-.4-.933-.12-2.025.595-2.412-.049-1.576-.013-3.092.036-4.583.594 1.116-.012 3.54.436 4.57.837.098.51-.945.534-1.478.036-.97.048-2.243.12-3.031v-.158c-.896-.145-2.108.012-3.127-.024zm-17.372.873c-.194.145-.29.388-.388.63.194-.036.17.134.388.073v-.703zm-4.424.352c.218.412.448.8.788 1.079-.037-.485-.388-.643-.4-1.164.412-.024.436.34.618.533.194-.121.291-.327.303-.618-.376-.315-.897.06-1.31.17zm-.461.387c.315.4.594.861.86 1.31-.036-.376-.375-1.115-.86-1.31zm-.23.316c-.146.46.57 1.333.945 1.782-.218-.691-.606-1.213-.945-1.782zm-.388.545c-.097.024-.121.133-.23.158.29.751.8 1.273 1.188 1.927.194-.618-.704-1.406-.958-2.085zm20.026-.036c-.279.049-.557.11-.933.085.06.23 1.006.279.933-.085zm-15.602.303c-.218.533.8 1.103 1.03 1.697.025-.63-.727-1.127-1.03-1.697zm-4.8.363c-.097.025-.122.134-.23.158.4.788.957 1.419 1.418 2.158 0-.873-.934-1.455-1.188-2.316z" fill="#EEF1F5"/><path fill-rule="evenodd" clip-rule="evenodd" d="M8.51 38.763c-.182-.024-.085.23-.23.23.497.595 1.067 1.116 1.491 1.77-.036-.739-.91-1.309-1.26-2zm81.658-.727c-.23-.012-.243.182-.461.158.012.279.23.351.242.618.23.049.28-.085.461-.085.024-.327-.23-.388-.242-.69zM3.625 39.2c-.182-.024-.085.23-.23.23.436.897 1.03 1.612 1.503 2.473.46-.933-.958-1.782-1.273-2.703zm4.51.194c-.17.157-.266.4-.388.63.606.91 1.516 1.491 1.964 2.546-.812-.291-1.394-1.504-2.121-2.158-.352.4-.546.945-.68 1.564 1.395-.582 2.51.254 2.728 1.37.74-2.037-.703-2.85-1.503-3.952zm28.172.036c-.34 2.522-.667 5.443-.849 7.843.655.025.498-.836.534-1.248.145-2 .34-4.255.315-6.595zm54.261-.376c-.06.037-.121.085-.23.085.242 1.297.957 2.582 1.515 3.94 1.079 2.594 2.146 5.261 3.103 8.05.461 1.333.837 2.763 1.43 3.939.377-.182-.023-.679-.084-.849-1.83-4.836-3.746-10.11-5.661-14.922.036-.146-.06-.146-.073-.243zm-87.246.934c-.303.424-.485 1.26-.376 1.71.206.823 1.624 1.393 1.806 2.157.594-1.94-.945-2.558-1.43-3.867zm86.008-.303c2.243 4.655 4.062 9.843 5.965 14.995.073.206.145.691.473.691.594-.097.133-.703.073-.86-1.867-4.8-4.05-10.22-5.892-15.08-.303 0-.4.181-.618.254zm-2.169-.218c-.473.072-.788.303-1.164.473.11.145.207.315.243.545.23.024.242-.182.46-.157.013-.255-.133-.328-.084-.619.4-.145.363.57.63.303.315.012-.097-.363-.085-.545zm1.709.448c-.4.206 0 .728.085.934 1.928 4.413 3.964 9.274 5.576 14.074.085.255.025.752.4.849.595-.073.134-.68.073-.861-1.721-4.861-4.121-10.268-5.964-15.08-.11 0-.158.024-.17.084zm-3.03.109c-.327.048-.449.279-.776.315.024.243.17.352.243.546.242-.049.436-.146.618-.243.06-.29-.097-.364-.085-.618zm2.485.134c-.085-.013-.134.024-.158.084-.085.655.327 1.334.558 1.928 1.782 4.485 3.83 9.504 5.491 13.917.17-.704-.327-1.31-.557-1.94-1.686-4.522-3.42-9.359-5.334-13.76a.735.735 0 000-.23zm-.691.315h-.23c.327 1.37.86 2.727 1.357 4.097 1.358 3.722 2.97 7.225 4.377 11.056.097.254.157.679.472.776.485-.17-.024-.703-.084-.849a3642.062 3642.062 0 01-5.892-15.08zm-2.873.024c-1.94.946-4.013 1.758-6.11 2.546-.024.34.23.4.243.69 2.06-.872 4.073-1.793 6.11-2.702-.085-.158-.134-.376-.243-.534zm1.939.376c-.46.182.012.666.085.848 1.83 4.777 4.146 9.747 5.734 14.85-2.473-4.473-4.182-10.522-6.522-15.456-.788.206-.097 1.249.17 1.867 1.964 4.57 4.17 9.528 6.037 14.147.364-.206.8-.34 1.164-.557-2.4-5.031-4.498-10.365-6.522-15.772-.073-.024-.121.012-.146.073z" fill="#EEF1F5"/><path fill-rule="evenodd" clip-rule="evenodd" d="M3.03 42.23c-.157.316.073.922.097 1.322 1.625 1.09 2.861 2.57 3.928 4.23-1.406-.702-2.449-2.885-3.758-3.685.412 1.055.825 2.643 1.976 3.322.303.17.885.267 1.322.448.981.413 2.436 1.019 3.333-.194 0-.23 0-.46-.012-.703-.655.328-1.418-.109-2.012.025-1.152-.873-2.837-1.188-3.14-2.922-.679-.497-1.164-1.212-1.733-1.843zm28.186.194c-1.079.703-.497 3.467-.497 4.97h.388c.352-1.345.024-3.357.11-4.97zm-14.596.219c-.279 1.26-.364 3.127-.267 4.51.328-1.516.449-3.165.267-4.51zm-8.68.472c-.242.28.049.68.473.546 0-.352-.412-.267-.473-.546zm21.736.182c.048 1.455-.097 2.728-.11 4.11h.619c.17-1.249 0-2.813.036-4.194-.254-.049-.363.06-.545.084zm16.692.219c.11.388.328.666.473 1.006.073-.255-.036-.994-.473-1.006zm-.472.011c-.121-.024-.133.073-.23.085.194.194.109.679.473.691-.025-.327-.146-.533-.243-.776zm13.747 8.789c2.558-1.14 5.286-2.424 7.734-3.418.23.072.134-.17.146-.315.8.194 1.794-.606 2.558-.958.242.036.242-.17.23-.388.243-.036.182.23.473.145 2.51-1.26 5.188-2.351 7.807-3.49-.049-.243-.17-.4-.243-.62-6.364 2.886-12.874 5.626-18.705 9.044zm-12.499-8.643c-.17.933.776 2.024.655 3.249-.073.703-.691 1.236-.29 1.94.811-1.213 1.296-4.51-.365-5.19zm-1.866.012c-.182-.024-.303.012-.388.085.218.303.255.776.703.849-.024-.4-.218-.619-.315-.934zm-.618.473c-.691.63-1.213 1.418-2.158 1.806.642 1.491.533 3.734 2.06 4.328-.351-1.625-1.042-2.898-1.284-4.643.533-.097.775-.922 1.54-1.019-.061-.157-.122-.29-.158-.472z" fill="#EEF1F5"/><path fill-rule="evenodd" clip-rule="evenodd" d="M9.578 44.583c-.63.812-2.255.715-3.031.109.085 1.224 2 .581 2.885.981.243-.181.133-.703.146-1.09zm41.385.447c-.085.013-.049.086 0 .073a229.701 229.701 0 001.927 6.038c.206.618.316 1.382.8 1.854-.46-2.485-1.72-4.825-2.17-7.588 1.176 2.145 1.722 4.933 2.716 7.273.049-1.03-.497-2.194-.812-3.334-.315-1.163-.643-2.34-.885-3.49.848 1.272 1.321 3.357 1.83 5.03.158.51.17 1.321.715 1.394.194-.485-.218-.982-.4-1.467-.557-1.503-.993-3.321-1.527-4.873-.751-.303-1.527-.546-2.194-.91zm-28.027.352c-.364.51.606.57.933.376-.29-.145-.812-.048-.933-.376zm46.804-.23c-.715-.06-1.066.91-1.612 1.26.74.086 1.019-.957 1.613-1.26zM38.78 46c-.145.097-.06.4-.145.546.06.073.206.048.23.158.182-.146-.133-.437-.085-.703zm14.826.013c-.049.4.23.909.4 1.394.497 1.394 1.079 3.127 1.673 4.485-.46-1.722-1.236-3.807-1.685-5.807-.218.06-.194-.109-.388-.072zm-4.036.036c-.243.873.351 1.576.497 2.327.12-.751-.376-1.551-.498-2.327zm-10.014.17c-.351.048.097.545-.145.776.145.012.254.048.315.145.182-.218-.146-.618-.17-.921zm2.57.061c-.218-.061-.206.108-.388.084.28 1.018.206 2.4 1.115 2.788-.084-.824-.545-1.915-.727-2.873zm-.933.084h-.316c.23.619.206 1.516.715 1.855-.109-.63-.193-1.297-.4-1.855zm-1.091.013c.267.327.133 1.066.557 1.236-.266-.327-.06-1.14-.557-1.236zm6.837.084c-.485.522-1.916.449-2.255.097.012.594.388.813.703 1.08.897-.025 1.6-.231 1.552-1.177zm-8.765.4c-.181.134-.024.594-.072.849 2.073.885 3.891 2.049 5.54 3.358.181-.352-.328-.655-.328-1.08-1.672-.945-3.236-2.387-5.067-2.896-.036-.061-.085-.122-.073-.23zM11.71 48.28c.316-.061.4.12.704.072v-.388c-.316-.084-.897-.339-.704.316zm1.71-.085h.545c-.073-.085-.57-.327-.546 0zm35.713-.121c-.266.4.158.776.17 1.163.182-.339-.194-.751-.17-1.163zm-2.097.326c-.23-.011-.242.183-.46.159.06.618.339 1.006.4 1.624.484-.424.193-1.164.06-1.782zm-1.467.4h-.23c.254 1.007.52 1.977.884 2.862.182-.764-.424-2-.654-2.861zm-8.232.316c.558 1.188 1.443 2.037 2.207 3.007.024.181-.012.29-.158.315.218.206.642-.025.849-.085-1.043-.946-1.855-2.546-2.898-3.237zm-2.012.024c.679 1.213 1.564 2.219 2.364 3.31.255 0 .388.133.703.073a112.43 112.43 0 01-2.364-3.395c-.242.013-.473.013-.703.013zm-20.887.207c-.412.776-.909 1.466-1.382 2.182.97.29 1.237-1.322 1.843-1.88.036-.06.073-.12.073-.23-.085-.109-.328-.072-.534-.072zm-.546.084c-.024-.109-.194-.06-.315-.072-.606.739-1.09 1.6-1.6 2.424 1.03-.4 1.176-1.685 1.915-2.352zm-.921 0c-.472-.303-.957.63-1.309 1.104-.351.46-.667.92-.836 1.248 1.09-.048 1.479-1.77 2.145-2.352zm21.263-.206c.655 1.14 1.407 2.17 2.122 3.237.254 0 .521 0 .776-.012-.74-1.067-1.516-2.121-2.207-3.237-.23.012-.46.012-.69.012z" fill="#EEF1F5"/><path fill-rule="evenodd" clip-rule="evenodd" d="M30.513 49.262a.944.944 0 00-.146.703c-.17-.049-.036-.437-.085-.618-3.758.06-7.43.048-11.104.024-.376 1.018-.897 1.891-1.443 2.727-.133.28.049.194.085.461-.157.182-.4-.109-.545.158-.17.194-.012.473.085.618-.788.012-1.03-.921-1.564-.921-.194.34.57.279.545.69-.424.304-.751-.302-1.09-.072-.255.158-.013.121 0 .388-.45.121-.582-.073-.934-.218-.23.024-.17.351-.388.388-1.479-.607-4.497.17-6.134-.485-.206.29.158.666.085 1.09 6.158.05 12.45-.048 18.402.207-.764-.582-1.6-1.091-2.267-1.77 1.564.34 1.915 1.927 3.976 1.745-.836-.327-1.467-1.333-2.497-1.684-1.673-.558-5.164-.243-7.067-.473 5.564-.764 11.77.181 17.54.218-.605-1.115-1.502-1.916-1.89-3.237-1.516.11-1.976.06-3.564.06z" fill="#EEF1F5"/><path fill-rule="evenodd" clip-rule="evenodd" d="M18.863 49.383c-.23 0-.46 0-.703.012-.364.873-.824 1.649-1.212 2.497.206.024.242.23.473.23.472-.933 1.03-1.757 1.442-2.74zm-1.164.012h-.23c-.34.994-.982 1.697-1.297 2.727.654-.776 1.042-1.794 1.527-2.727zm-.691.085c-.012-.17-.327-.037-.473-.073-.23.448-.484.982-.763 1.479-.243.436-.8.945-.534 1.406.74-.8 1.2-1.855 1.77-2.812zm-1.018-.073h-.545c-.352.86-.849 1.576-1.37 2.267 1.079.351 1.224-1.43 1.843-2.037.036-.06.084-.121.072-.23zm51.169.279c2.085 5.14 4.958 9.892 7.055 15.141.11.279.121.74.473.849.63-.122.06-.68-.012-.861-1.733-4.45-3.806-8.704-5.795-13.214-.23-.52-.703-1.721-.945-1.927-.267-.218-.291-.218-.776.012zm-16.304.158h-.23c.46 1.151.848 2.376 1.357 3.479-.194-1.043-.86-2.267-1.127-3.48zm15.067.387c2.691 5.2 5.2 10.583 7.759 15.917.097-.158.339-.182.545-.242-2.437-5.37-5.176-10.45-7.382-16.075-.304.145-.643.242-.922.4zm-21.893.219c-.267.472.376 1.321.945 1.466.158-.666-.52-1.139-.945-1.466zm17.869 1.612c1.952 5.2 4.437 9.843 6.28 15.153-.8-.994-1.189-2.364-1.746-3.625-1.625-3.685-3.322-7.698-5.007-11.37-.812.23-.085 1.248.17 1.866 1.964 4.655 4.425 9.638 6.122 14.535 1.794-.8 3.721-1.479 5.491-2.303-2.642-5.189-5.164-10.51-7.613-15.917-1.26.509-2.46 1.103-3.697 1.66zm-22.135-1.261c-.085.121.751 1.394 1.333 1.152-.412-.424-.958-.691-1.333-1.152zm9.237.145c-.158.06-.206.206-.23.388.145-.012.17.097.315.073 0-.182-.134-.23-.085-.46zm-41.993.485c-.109.4.619.618 1.019.764.084-.364-.728-.51-1.019-.764zm-.849.4c-.145.037-.194.17-.388.158.291.74.11 1.976.873 2.243-.157-.8-.388-1.528-.485-2.4zm39.508-.157c-.388.109.072.57.012.86.351-.145.024-.618-.012-.86zm-31.192.461c-.036-.17-.388-.024-.545-.073.097.133.157.303.388.303-.012-.121.048-.194.157-.23zm-1.321.012h-.473c.012.206.303.109.315.303.11-.037.146-.158.158-.303zm-4.194.048c.34.28.69.558 1.321.534-.145-.485-.776-.473-1.321-.534zm2.643.049c.266.23.473.521 1.018.46-.303-.193-.485-.375-1.018-.46zm-1.164.012c.254.23.46.533 1.018.46-.206-.303-.46-.545-1.018-.46zm6.207.012c-.133.182.17.412.388.46 0-.133.06-.205.157-.23-.133-.12-.29-.23-.545-.23zm30.973-.146c-.049.23-.182.388-.303.546.666.97 1.964 1.297 2.885 1.988.34-.097.521-.364.848-.473-1.14-.667-2.133-1.806-3.43-2.06zm-32.755.328c-.146.012-.049.254-.23.23.011.218.327.145.545.145-.06-.17-.267-.194-.316-.375zm-1.164.012c-.194-.012-.243.12-.388.157.012.218.327.146.545.146-.048-.11-.121-.194-.157-.303zm-6.837.133c-.146.23.157 1.346.484 1.625.4-.243-.048-.861.061-1.322-.23-.048-.376-.17-.545-.303zm19.492.206c.643.607 1.564.91 2.11 1.613.873.109 1.89.06 2.873.048-.655-.509-1.625-1.103-2.267-1.37 1.418-.23 2.06 1.722 4.206 1.43-.63-.617-1.551-.933-2.109-1.611-1.03.06-1.83-.122-2.873-.049.546.485 1.236.824 1.879 1.224-.388.425-.97-.12-1.406-.375-.691-.425-1.176-.994-2.413-.91zm33.69.134c2.254 5.358 4.679 10.534 6.752 16.074 1.03-.303.085-1.358-.097-1.782a1886.844 1886.844 0 01-6.037-14.607c-.206.097-.412.206-.618.315zm-28.416.048c1.042.449 1.527 1.48 2.97 1.528-.849-.667-1.273-1.746-2.97-1.528zm2.097.049c.63.533 1.03 1.309 2.036 1.454-.654-.509-.909-1.418-2.036-1.454zm5.674.024c.557.473 1.164.909 1.952 1.151-.473-.57-.813-1.273-1.952-1.151zm-1.019.084c.715.364 1.09 1.08 2.024 1.225-.69-.376-1.067-1.091-2.024-1.224zm-.92.013c.593.436 1.005 1.067 1.793 1.297-.594-.437-.97-1.091-1.794-1.297zm20.34.739c2.255 5.359 4.922 10.292 6.838 16.002.363-.06.57-.254.933-.315-2.182-5.334-4.788-10.231-6.68-15.844.655.267.776 1.103 1.03 1.697 1.807 4.303 3.807 8.692 5.638 13.14.097.243.206.8.63.777.4-.51-.206-1.31-.485-1.94-2.024-4.546-4.024-9.698-6.037-14.305-.594.291-1.236.522-1.867.788zm-.618.231c.23.715.424 1.455.946 1.855-.11-.51-.291-1.637-.946-1.855zm-.388.315c-.351.242.243.836.328 1.164.12-.315-.291-.74-.328-1.164zm-.533.158c-.158.048-.218.194-.46.157-.11.582.448.485.703.691.145-.206-.207-.582-.243-.848zm-53.642.994c-.013.218.194.218.388.23.012-.218-.182-.218-.388-.23zm52.091-.28c.133.316.557.328.933.376-.11-.266-.607-.581-.934-.375zm-51.158.51c.254.51 1.321.17 1.867.376-.06 7.443-.364 16.474-.388 24.22-.546-3.636-.376-7.66-.267-11.564.11-3.952.049-7.929.194-11.723-.521.085-1.042.11-1.479-.06-.29 10.158-.218 20.365-.473 30.827-.084 3.406-.17 6.825.328 10.086.351-.121.509-.085.933-.012.34.06.679.364 1.164.218-.121-13.807-.121-27.482.376-40.683.29 13.092-.073 27.324.085 40.671.339 0 .666-.012 1.006-.012.376-11.747-.17-24.718-.049-36.792.012-1.673 0-3.322.34-4.897 6.934-.607 15.129-.267 22.123-.522-.34-.424-.994-.218-1.406-.218-3.661.037-7.37-.048-10.874-.048-4.51 0-9.128.23-13.48.133zm42.005-.412c-.413.157-.158.982-.219 1.479.376-.34.582-1.019.219-1.48zm-1.177.012c-.533.036-1.018.133-1.624.097-.12.145-.109.63.013.776.278 0 .57 0 .848-.012-.133-.255-.521-.255-.63-.534.351-.279 1.054.364 1.406.606.17-.181.06-.74-.012-.933zm-2.242.17c-.376-.11-.194.327-.23.545.242-.012.254-.255.23-.545zm-.618.012c-.206 0-.412 0-.618.012-.06.315.121.4.085.703h.545c-.012-.255-.012-.485-.012-.715zm-.861.012h-.388v.618c.242-.06.145-.06.388 0 .012-.206 0-.412 0-.618zm-.849 0c-.242.024-.133.388-.145.618.303.049.085-.424.146-.618zm-10.327.182c.072.497.897.303 1.394.29.473 0 1.164.158 1.236-.17-.57-.29-2.024-.108-2.63-.12zm9.782-.098h-.315c.024.182.121.291.085.546.315.048.218-.291.23-.546zm-.618.012c-2.049.074-4.291-.06-6.207.134-.085.522 1.249.413 1.164-.012.255.328 1.843.727 1.94-.024.266.012.157.412.388.46.909-.012 1.806-.011 2.715-.024v-.533zm17.468-.023c.025.4.449.375.776.46-.097-.315-.46-.364-.776-.46zm-2.412.023c-.097.086-.279.086-.388.158.024.291.206.413.546.389.012-.243-.097-.376-.158-.546zm.545.146c.134.23.122.606.473.618-.182-.181-.036-.69-.473-.618zm-51.69.667c-.303.157.255.715.316 1.006.254-.388-.146-.776-.316-1.006zm52.466-.436c.11.497.473.715 1.018.764.013-.243-.206-.255-.157-.546-.315-.036-.51-.206-.86-.218z" fill="#EEF1F5"/><path fill-rule="evenodd" clip-rule="evenodd" d="M7.686 56.632c-.097-.012-.146.024-.158.085-.351 9.77-.181 20.862-.084 31.288.024 3.043.157 6.219.012 9.164-.013.243-.316.861.17 1.007.57.109.436-.655.46-.861.255-2.897-.145-6.122-.17-9.08-.085-8.607-.097-17.226-.17-25.93-.012-1.843-.12-3.855-.048-5.43-.012-.086-.012-.17-.012-.243zm44.55-.279c-.06.036-.121.085-.23.085.06.073.085.17.085.303h.315c-.049-.158-.182-.206-.17-.388zm5.904.012c1.079 2.74 2.424 5.467 3.576 8.268.352.86.46 2.024 1.346 2.545-1.322-3.54-3.104-7.285-4.692-10.825-.073.012-.157.012-.23.012zm-5.516.061c.157.315.255.69.788.618-.085-.4-.327-.63-.788-.618zm-8.849.157c.182.23.485.34.63.619.158-.267-.23-.655-.63-.619zm-14.123.146c.23 9.965.667 20.826.776 31.433.024 2.8.121 5.82.327 9.08.037.51-.109.91.4.934.606.024.315-.425.303-.934-.048-2.8-.157-6.68-.085-8.922.097-2.873-.072-7.176-.254-10.316-.412-7.237-.158-14.341-.279-21.19-.352-.11-.764-.11-1.188-.085zm-.461 0c-.897-.279-.448 1.588-.448 2.097.194 12.414.242 24.572.363 36.95 0 .412 0 .897.012 1.32.013.28-.194.862.243 1.007 1.248.643.873-1.649.824-2.34-.654-12.522-.606-26.306-.921-38.804.012-.109.012-.218-.073-.23zm67.91-.594c-.678.352-1.685.4-1.927 1.188.776-.206 1.37-.606 2.085-.873-.036-.12-.11-.194-.158-.315zm-40.67.4c.073.473.424.667.934.691-.11-.157-.158-.364-.243-.545-.303.036-.388-.17-.69-.146zm-14.899.145h-.545c.072.243.303.316.545.389v-.388zm-6.292.073c-.46 0-.933.013-1.394.013-.06 14.813-.036 27.154-.29 41.459 1.672-.085 3.054.133 4.654.109-.097-14.087-.17-28.149.449-41.532-.934.012-1.867.024-2.8.024.048 2.861.011 5.65-.073 8.389-.449-2.413-.206-5.54-.316-8.304-.048-.085-.133-.121-.23-.158zm-.06 9.468c.06 6.255-.328 13.298-.522 18.632-.327-8.037.473-16.28.218-24.766.437 1.988.28 4.073.303 6.134zm.8 3.176c.157 2.303-.097 4.34-.085 6.595.024 4.606 0 9.346-.255 13.662-.218-6.825-.34-14.22.267-20.5 0 .11.036.183.073.243zm-2.607-12.631c-.315 0-.618.012-.933.012.17 12.146.34 24.742.133 36.646-.012.849-.109 2.546-.121 3.807 0 .497-.097.97.315 1.006.558.048.364-.473.376-1.019.279-12.813.073-26.887.376-40.21.012-.145-.049-.206-.146-.242zm-1.393.012c-.291 0-.57 0-.849.012.291 6.922.23 13.94.51 20.875.278 6.873.23 13.904.363 20.572.388-.194.158-.728.145-1.007-.072-3.006.17-6.06.146-9.007-.097-10.255-.158-20.899-.23-31.203.181-.024.012-.267-.085-.242zm7.843-.001c-.085-.012-.134.013-.158.073-.133 11.82.424 25.76.06 37.883.437-.521.194-1.467.207-2.328.036-2.23.157-4.703.242-7.14.121-3.273-.145-6.63-.17-9.94-.036-3.6-.06-6.764-.097-10.013-.036-3.346-.145-4.995-.084-8.304v-.23zm-.619.013c-.097-.012-.145.012-.157.072-.243 10.135-.437 20.633-.388 31.289.012 2.921-.037 5.915.012 9.237 0 .485-.182.933.242.933.558 0 .352-.351.376-.933.133-3.043.012-6.267.06-9.08.183-10.22-.314-21.396-.145-31.276v-.242zm14.511-.073c.06.351.254.57.545.69.17-.133-.145-.424-.157-.617-.219.072-.206-.097-.388-.073zm1.164.303c-.206.218.157.51.242.691.146-.158-.145-.51-.242-.691zm-2.485.11c-.133-.025-.145.06-.157.157.266.836.642 1.758.957 2.703.485 1.455.618 3.03 1.903 3.552.061-.485-.4-1.103-.872-1.31-.037-.242.387-.036.303-.314-.8-1.492-1.225-3.383-2.134-4.789zm-6.594.06c-.303.351-.473.897-.218 1.406.351-.206.193-.897.218-1.406zm9.94.06c-.303.352.351 1.043.945 1.007a3.219 3.219 0 00-.4-.849c-.242 0-.436-.048-.545-.157zm-15.372.304c-.29-.049-.145.545-.073.618.243-.012.182-.51.073-.618zm-37.798.363c-.254.376.219.655.243 1.006.303-.412-.206-.667-.243-1.006zm50.612-.412c.036.376.17.667.63.619-.133-.303-.182-.667-.63-.619zm3.878.109c-.181.327.328 1.273 1.02 1.236-.255-.497-.377-1.127-1.02-1.236zm-2.787.194c-.17.218.097.678.472.618-.036-.34-.266-.473-.472-.618zm-12.801 1.055c.412-.425-.68-1.225-.473-.303.133.12.351.157.473.303zm-1.092-.219c-.302-.012-.145.667-.072.776.182-.121.024-.546.073-.776zm15.917-.084c-.254.472.485.606.788.763.23-.448-.533-.557-.788-.763zm-2.642.024c.085.303.17.606.473.69.145-.217-.097-.727-.473-.69zm-11.638.109c-.182.097-.06.533.084.545.17-.084.061-.52-.084-.545zm12.571.194c.17.279.194.69.546.776.206-.182-.146-.473-.158-.691-.218.06-.206-.122-.388-.085zm-13.505.291c-.17.085-.024.485-.072.703.242.012.303.206.472.303.17-.085.025-.485.073-.703-.133-.134-.351-.17-.473-.303zm1.637.133c.255.86 1.25.97 1.722 1.612.17-.921-1.26-1.321-1.721-1.612zm14.984-.073c.012.46.46.473.776.618-.025-.448-.4-.533-.776-.618zm-11.88.279c-.158.097-.522.533-.073.546-.049-.255.048-.364.073-.546zm10.788.121c.146.582.582.873 1.176.994-.17-.545-.485-.957-1.176-.994zm-2.4.025c.025.266.146 1.103.63 1.163-.108-.484-.266-.933-.63-1.163zm-12.11.121c-.267-.012-.242.885.085.776-.024-.267.048-.63-.085-.776zm-1.709.169c-.291-.06-.134.473-.073.546.182-.036.024-.376.073-.546zm-37.872.377c-.278.57-.06 1.175.17 1.624.17-.46-.085-1.164-.17-1.624zm52.625-.207c.242.376.194 1.055.788 1.08-.267-.364-.182-1.08-.788-1.08zm-12.341.122c-.182.109-.024.545-.073.776.643.29 1.212 1.054 1.794 1.151.037-1.273-1.224-1.212-1.721-1.927zm15.371-.073c-.073.473.4 1.055.946 1.152a8.75 8.75 0 00-.473-1.08c-.133.134-.412.073-.473-.072zm-16.607 1.091c.133-.522-.267-.522-.4-.776-.413.23.06.812.4.776zm-1.164-.291c-.255.024-.17.642-.073.776.182-.11.024-.546.073-.776zm52.708-.449c-.29.073-.29.424-.303.776.267-.097.352-.364.303-.776zm-35.786.352c-.218.388.425 1.236 1.019 1.31.097-.558-.497-1.104-1.019-1.31zm-11.564.195c-.4.17-.304.836-.304 1.405.243-.327.28-.86.303-1.406zm-3.722.035c-.157.085-.133.643.158.546.048-.291-.06-.412-.158-.546zm50.297-.182c-.243.146-.218.546-.218.934.327-.06.206-.57.218-.934zm-37.495.364c.181.412.193 1.006.703 1.079-.194-.388-.194-.994-.703-1.079zm-13.808.291c.012.485.097.897.558.921v-.703c-.243-.024-.267-.254-.558-.218zm1.71.146c.133.97 1.212.957 1.648 1.612.182-.06.024-.436.073-.618-.643-.219-1.164-.97-1.721-.994zm48.902-.328c-.06-.182-.34.073-.46.085 0 .34.011.666.011 1.006.63.109.218-.812.449-1.091zm-32.84.243c-.122.436.376.921.788 1.079.182-.497-.376-.922-.788-1.08zm-2.874.024c-.024.255.182.958.63 1.006-.193-.351-.218-.86-.63-1.006zm-53.629.764c-.315.74.34 1.163.327 1.867.291-.728-.303-1.213-.327-1.867zm39.737-.316c-.109.146-.193.934.158.849.012-.327.049-.715-.157-.849zm48.672-.4c-.157.073-.303.158-.46.243.181.4-.194.727-.06 1.321.23-.097.4-.267.617-.4-.097-.327-.109-.74-.097-1.164zm-50.296.57c-.085-.012-.133.012-.157.085-.012 1.37.109.715.157-.085zm17.626.146c-.327.424.376 1.127 1.018 1.079-.182-.522-.497-.91-1.018-1.08zm31.749-.243c-.46.182-.158 1.128-.376 1.552.606-.037.146-1.128.376-1.552zm-46.962.461c-.17.109-.025.545-.074.775.522.413 1.043.813 1.564 1.225.23-.11.133-.534.146-.861a24.688 24.688 0 01-1.637-1.14zm2.945.133c-.073.06-.17.085-.315.085 0 .315 0 .618.012.934.23-.219.352-.546.303-1.019zm-4.57.049c-.194.436-.085 1.236.4 1.236.048-.606-.025-1.079-.4-1.236zm47.884-.316c-.243 0-.303.17-.461.243.073.497-.17 1.321.242 1.467.17-.485.134-1.164.219-1.71zm-33.447.328c-.242.133.17.91.473 1.006.121-.315-.218-.836-.473-1.006zm3.649.109c.23.412.303 1.006.946 1.006-.11-.558-.388-.921-.946-1.006zm-2.715.266c.158.316.194.752.558.849-.134-.34-.17-.776-.558-.849zm31.519-.157c-.242.182-.036 1.018-.06 1.624.496-.218-.073-1.03.06-1.624zm-45.957.449c-.254.036-.267 1.079.085 1.006 0-.352.024-.752-.085-1.006zm45.339-.206c-.134-.013-.158.096-.316.084-.23.533.085 1.152.013 1.782.775-.121.157-1.212.303-1.867zm-41.763.57c-.303 1.381-.121 3.187.049 4.654 0-1.26-.049-3.152-.049-4.655zm38.805-.231c-.388.206-.861.34-1.237.557-.06.243.085.28.085.461.279-.11.533-.242.533-.63.194-.013.376-.025.388.145.194-.06.206-.303.23-.533zm-41.75.412c0 .316.012.618.012.934.582.376 1.03.885 1.636 1.224 0-.364-.012-.727-.012-1.09-.63-.28-1.018-.789-1.636-1.068zm43.847-.351c-.085-.012-.133.012-.157.085-.376.339-.17 1.273-.219 1.94.255 0 .267-.255.546-.243 0-.643-.085-1.225-.17-1.782zm-45.399.52c-.17.061-.024.437-.073.619.206.024.243.23.473.23.11-.533-.194-.642-.4-.848zm44.707-.205c-.279.363-.279 1.418-.133 1.94.351-.352.048-1.334.133-1.94zm-26.002.327c.194.376.303.837.86.849-.06-.255-.23-.388-.242-.691-.254-.012-.29-.218-.618-.158zm-3.722.037c.037.364.218.557.473.69.133-.217-.097-.727-.473-.69zm29.106-.122c-.145.036-.194.17-.388.157.012.68.012 1.346.024 2.025.74-.121.219-1.48.364-2.182zm-2.327.097c-3.08 1.467-6.158 2.934-9.116 4.522 1.103.63 2.315 1.14 3.43 1.745 1.783-1.2 4.074-1.89 5.795-3.164-.012-.703-.012-1.394-.024-2.097-1.212.473-2.291 1.091-3.48 1.588.934-.957 2.437-1.357 3.468-2.206.036-.194-.134-.17-.073-.388zm-25.773.327c.158.206.194.534.4.691.085-.145-.048-.727-.4-.69zm-15.213.23c.024.255-.097.667.242.619-.012-.28.049-.63-.242-.619zm-.776.086c-.085.533-.243 1.818.254 2.012.23-.57.267-1.746-.254-2.012zm43.241-.267c-.121-.024-.133.073-.23.085.012.69.097 1.309.17 1.94.375-.461-.086-1.31.06-2.025zm-.618.23c-.837.182-.219 1.419-.437 2.255.34.025.4-.218.691-.242a20.17 20.17 0 01-.255-2.013zm-24.766.243c-.024.727.618.776 1.09.994.146-.521-.411-1.03-1.09-.994zm-16.221.242c-.29 1.079 1.043 1.188 1.419 1.855.485-1.007-.982-1.285-1.419-1.855zm13.978.097c-.206.085.073.958.558.849-.11-.364-.28-.667-.558-.849zm-1.394.012c-.085.534.824.727 1.103 1.152.182-.218-.255-.473-.243-.776-.266.133-.69-.158-.86-.376zm5.115.024c.17.4.206.934.788.922-.206-.364-.194-.946-.788-.922zm-18.389.34c-.243.158-.291 1.43.097 1.479-.037-.497.048-1.103-.097-1.479zm15.759 0c-.133.17.036.703.315.703-.048-.29-.218-.46-.315-.703zm-55.57.861c-.182.157-.073 1.321.17 1.552.23-.498-.267-.934-.17-1.552zm40.598-.17c-.339.133-.06.86-.145 1.249.521.363.97.787 1.564 1.066 0-.388-.012-.776-.012-1.164-.485-.375-.982-.727-1.406-1.151zm32.525-.243c-.545.23-1.26.303-1.624.715.52.049 1.224-.375 1.624-.715zm-15.686.158c-.437.448.57.715 1.018.764-.037-.57-.63-.57-1.018-.764zm-2.401.328c.558 1.757 1.6 3.697 2.534 5.334.121-.4-.206-.898-.4-1.31-.582-1.212-1.358-2.667-1.904-3.94-.109 0-.218.012-.23-.084zm3.879.121c-.133.206.158.678.546.618-.06-.327-.255-.521-.546-.618zm-20.098.194c0 .339.012.666.012 1.006.109.073.29.073.315.23.133-.352.17-1.273-.327-1.236zm26.875 2.606c2.037-.691 3.746-1.71 5.722-2.461.012-.085-.012-.134-.073-.158.012-.097-.024-.145-.085-.157-1.37.533-3.091 1.212-4.558 1.83-.4.182-1.321.243-1.006.946zm-9.722-2.619c.12.121.024.437.315.388-.049-.194-.073-.4-.316-.388zm1.709.449c.122.606.728.715 1.322.836-.134-.582-.643-.8-1.322-.836zm-17.856.254c-.328.061-.352.995.084.934 0-.34.025-.703-.084-.934zm19.492.195c.17.278.194.69.558.775.096-.242-.073-.872-.558-.775zm-2.945.036c.109.206.218.412.315.618.11-.121-.036-.642-.315-.618zm-15.904 1.079c.484.34.97.679 1.563.921 0-.23 0-.46-.012-.703-.497-.303-1.006-.594-1.406-.994-.327 0-.073.546-.145.776zm16.91-.788c-.194.133.145.376.158.545.194-.12-.134-.375-.158-.545zm-13.892.303c-.097-.012-.133.012-.157.072.024.449-.049.995.097 1.322 0 .364.012.727.012 1.09.048.134-.085.462.085.462v-.546c0-.727-.013-1.443-.025-2.17-.012-.085-.012-.158-.012-.23zm-4.498.036c-.327 0-.073.545-.146.776.146.012.255.048.316.157.181-.242.072-.86-.17-.933zm19.166-.036c.048.654.836.557 1.248.836.17-.545-.703-.727-1.248-.836zm-18.391.569c-.315.061-.181.885.158.776.012-.315.024-.642-.158-.776zm17.239-.085c-.17.122.036.534.242.546-.096-.182-.145-.4-.242-.546zm13.432.255c1.248.437 2.485 1.83 3.891 1.358-1.006-.63-2.243-1.006-3.2-1.673-.291.048-.449.218-.691.315zm-10.559-.206c.073.29.158.57.546.533-.121-.242-.134-.594-.546-.533zm-3.867 1.358c.146-.23-.255-.582-.315-.849-.497.037-.788-.133-1.018-.375-.364.606.788 1.006 1.333 1.224zm8.607-.788c.085.097.073.29.158.388.315-.025.521-.146.776-.243-.012-.654-.68-.424-.934-.145zm-24.135.703c.557.376 1.03.836 1.636 1.152-.012-.376.036-.813-.085-1.08-.57.013-1.685-1.502-1.552-.072zm-40.454-.303c-.06-.012-.073.036-.073.073.049 4.121-.072 9.043-.024 13.274.012 1.467-.17 3.515.049 4.497.072-4.291-.025-8.837.097-13.274.036-1.551.194-3.418-.049-4.57zm58.758-.497c-.424.424.68.594 1.091.691-.012-.582-.751-.424-1.09-.691zm10.644.206c1.163.485 2.279 1.83 3.733 1.285-.945-.606-2.194-.897-3.115-1.515-.279 0-.34.218-.618.23zm-30.513.072c-.085.667-.194 2.025.097 2.558.182-.594.485-2.194-.097-2.558zm25.627-.096c-.303 0-.448.181-.69.242.072.097.072.291.157.388.303-.012.485-.145.69-.243-.036-.157-.23-.145-.157-.387zm-7.225.072c.097.558.437 1.54.946 1.928-.327-.63-.594-1.334-.946-1.928zm2.959.194c.072.207.194.376.388.461.206-.182-.097-.521-.388-.46zm3.26.122c-.581.485-2 .46-2.012 1.26a28.91 28.91 0 002.17-.872c-.036-.146-.17-.182-.158-.388zm-5.286.06c-.06.352.231 1.019.558 1.237-.084-.521-.388-.812-.557-1.237zm-18.474.34c-.121.485-.546 2.145.181 2.254-.084-.739.146-1.782-.181-2.254zm19.251-.036c.012.278.23.351.242.618.412.024.558-.218.849-.315-.194-.267-.728-.194-1.091-.303zm-18.39.569c-.17.558-.29 1.516-.133 2.025.23.74 1.442 1.042 1.721 1.612.085-.667-.133-1.697-.097-2.558-.509-.351-1.054-.666-1.49-1.079zm26.003.134c1.09.351 2.327.885 3.66.74-.897-.498-2.558-1.213-3.66-.74zm-5.431.048c-.158-.024-.206.06-.315.085-.037.242.17.242.388.23.024-.145-.085-.17-.073-.315zm-1.54.787c.327.183.594-.254 1.006-.242-.073-.557-.848-.024-1.006.243zm6.207-.448c.836.364 2.073 1.019 3.115.667a16.818 16.818 0 00-3.115-.667zm-10.244.412c.049.158.194.219.158.461.533.012.933-.109 1.321-.242a5.085 5.085 0 01-1.479-.219zm9.553-.012c.654.376 1.624.764 2.485.68-.776-.292-1.673-.45-2.485-.68zm-26.234.57c-.12.436-.12 1.418.013 1.867.218-.388.303-1.66-.013-1.867zm25.459-.169c.545.254 1.127.472 1.866.521-.557-.243-1.212-.388-1.867-.521zm-6.207.205c-.388.025-.607.218-.934.315.303.207.897.025.934-.315zm-18.548.425c-.097.51-.388 1.649.17 1.867.072-.57.351-1.612-.17-1.867zm23.202.157c.121.134.352.17.618.146-.12-.133-.339-.17-.618-.145zm-22.196.534c-.352.242-.048 1.127-.145 1.624.69.316 1.333 1.091 1.879 1.297.303-1.866-.982-2.12-1.734-2.921zm-1.697.946c-.34.363-.06 1.333-.133 1.939.424-.255.23-1.66.133-1.94zm.63.46c-.133.546-.4 1.855.328 1.94 0-.57-.012-1.14-.012-1.71-.11-.084-.291-.072-.316-.23zm1.018.679c-.642 2.037 1.043 2.86 1.746 3.552-.049-.788.242-1.455.06-2.025-.266-.763-1.479-.885-1.806-1.527zm-1.552.957h-.23c.146 3.492-.218 7.322.11 10.474.266-2.994.048-6.849.133-10.243-.012-.085-.012-.158-.012-.23zm.474.376c-.097.57-.242 1.867.327 2.013.182-.412.012-1.164.06-1.71-.132-.084-.254-.194-.387-.303z" fill="#EEF1F5"/><path fill-rule="evenodd" clip-rule="evenodd" d="M42.974 78.174c-.545 1.867.97 2.727 1.661 3.321.473-1.879-.97-2.364-1.66-3.321zm-1.066.946c-.061-.013-.073.036-.073.072.024 1.661.024 3.758.06 5.589.013.533-.17 1.309.485 1.394-.024-2.194-.048-4.4-.06-6.595-.146-.17-.303-.29-.412-.46zm1.091 1.151c.157.97-.388 5.091-.012 6.292.218.703 1.151.897 1.49 1.224-.023-1.964.11-3.794.17-5.673-.545-.619-1.127-1.188-1.648-1.843zm-1.103 6.534c-.17.133-.025.594-.073.86.133.122.352.17.473.304.29-.51-.085-1.018-.4-1.164zm1.176.922c-.17.084-.025.484-.073.703.485.23.91.533 1.333.836.28-.921-.897-1.018-1.26-1.54zm-1.237.545c.11.23.364.315.473.545.255-.29-.23-.496-.473-.545zm-39.58.86c-.024 2.461-.473 6.51.012 9.08.06.291.158.703.473.849-.436-2.837-.643-6.498-.485-9.929zm40.672-.085c.181.728.8 1.007 1.406 1.31v-.618c-.497-.146-.934-.788-1.406-.692zm-1.697.013c-.122.315-.146 1.188.096 1.394.122-.316.134-1.188-.097-1.394zm.775.618c-.364.388-.134 1.479.254 1.624.182-.497.085-1.406-.255-1.624zm1.103.922c-.655 1.127.303 1.915.958 2.4.096-.473.339-1.104.218-1.48-.182-.557-.922-.509-1.176-.92zm-1.94.169c-.11.255-.194 1.14.17 1.164.157-.315.085-1.043-.17-1.164zm.862.764c-.389.218-.061.982.17 1.09.326-.278.072-.92-.17-1.09zm3.188.521c-.291.897-.194 2.17-.352 3.188.267-.91.255-2.11.352-3.188zm-4.123.036c.097.788-.17 1.952.182 2.485.158-.521.4-2.23-.182-2.485zm1.868.364c-.364.994.666 1.249.945 1.855.255-.194.073-.8.218-1.091-.57-.06-.812-.46-1.163-.764zm-1.006.327c-.28.34-.085.788.242.934.255-.352-.048-.788-.242-.934zm1.017.994c-.145.012-.048.267-.157.316.267.46.63.812 1.103 1.079.049-.837-.69-.861-.946-1.395zm-1.079.097c-.182.449-.085 1.285.243 1.467.206-.534.194-1.237-.243-1.467zm-.691.934c-.133.376-.133 1.285.097 1.551.146-.388.11-1.26-.097-1.551zm1.782.061c-.545.788.073 1.673.716 1.94.303-1.031-.23-1.504-.715-1.94zm-3.176.023c.012 1.128-.351 2.668-.12 3.492.508 0 .302-.897.29-1.479-.012-.8.06-1.6-.17-2.012zm5.044.728c-.097.146-.182.497-.073.618.097-.145.194-.497.073-.618zm-2.946.036c-.097.364-.23 1.443.255 1.48-.037-.546.109-1.274-.255-1.48zm.945.922c-.339.618-.181 1.854.643 1.782.267-.946-.194-1.37-.643-1.782zm-1.636.012c-.303.267-.146 1.394-.061 1.782.424-.158.267-1.491.06-1.782zm3.492.048c-.243.449-.194.934-.219 1.71.461-.158.34-1.261.219-1.71zm-2.789.643c-.073.267-.206.86-.06 1.09.4-.06.23-.908.06-1.09zM3.358 98.746c-.036.436.51.266.776.375a2.107 2.107 0 00-.776-.375zm4.667.969v-.618c-.29.049-.824-.133-.775.243-.267-.461-1.225-.206-1.71-.449-.206 0-.097.06-.072.158.775.29 1.54.606 2.557.666zm2.085-.642c-.254 0-.52 0-.775.012-.11.206-.085.533-.145.776.412-.049.581.133 1.006.072-.024-.29.06-.703-.085-.86zm-1.236.012h-.388c0 .23 0 .46.012.703.23-.06.279.073.46.073-.024-.267.061-.63-.084-.776zm2.412.048c-.29 0-.57 0-.86.012.024.303.012.57-.073.776.364-.036.655.012.933.073v-.86zm18.935-.109c-.363 0-.727.013-1.09.013 0 .23 0 .46.011.703.364 0 .728-.012 1.091-.012-.012-.23-.012-.473-.012-.704zm-5.818.133c-.084.958 1.164.606 1.94.606.873-.012 1.818-.012 2.485-.024.06-.315-.121-.4-.085-.703-1.418.073-3.055-.073-4.34.121zm-.315-.072c-4.11.097-8.438-.024-12.414.206-.509 1.164 2.085.752 2.958.752 3.237-.037 6.764-.28 9.626-.255.048-.242-.085-.279-.085-.46 0-.122.012-.23-.085-.243zm11.262-.025c.557.316.933.813 1.793.837-.448-.448-.897-.873-1.794-.836zm-3.806.11c-.11-.182-.546-.024-.776-.073v.618c.497-.06.751.122 1.236.06-.109-.302-.533-.29-.776-.46.025-.12.134-.17.316-.145zm13.273-.134h-.46c-.061.291-.28.655.012.849.436.012.4-.46.448-.849zm-2.254.098c-.037.278.485-.037.776.072.036-.278-.691-.17-.776-.072zm-9.08.096c.254.316.581.558 1.163.534-.327-.182-.654-.788-1.163-.533zm-1.164-.072c.097.4.46.521.86.618-.133-.364-.472-.51-.86-.618zm6.207.17c.206.315.63.412.933.618.06-.255-.546-.534-.934-.618zm-30.949 1.709c.291.181.91.012 1.321.06-.375-.121-1.14-.448-1.32-.06zm14.741.012c-.764-.048-2.425-.327-2.63.412 1.09.073 1.951-.085 2.63-.412zm4.582.024c-.533-.218-.873.425-1.394.485.449.121.91-.388 1.394-.485zm-1.164.012c-.582-.194-1.018.437-1.624.485.606.206 1.066-.388 1.624-.485zm-1.478.025c-.788-.315-1.346.267-1.94.412.8.303 1.31-.327 1.94-.412zm-4.801.048c-.533-.133-1.479-.024-1.94.17.607.157 1.564.254 1.94-.17zm10.863-.036c-.825-.364-1.322.242-1.783.485.691.23 1.152-.413 1.782-.485zm-13.276.133c-.364-.073-1.503-.243-1.624.169.582-.024 1.26.061 1.624-.169zm14.826-.073c-.497-.23-1.128.073-1.237.473.704.133.716-.424 1.237-.473zm4.353.037c-.34-.194-.63.303-1.006.315.46.327.606-.315 1.006-.315zm-2.716.024c-.582-.23-1.067.279-1.552.4.68.34.97-.376 1.552-.4zM22.063 3.463c1.661-.376 2.013 1.43 2.425 2.534.424 1.127.86 2.133.958 3.018.12-1.164-.63-2.424-.813-3.794-.06-.485.085-1.08-.012-1.552-.206-.994-1.188-1.685-1.806-2.158-.655 1.697-2.134 3.334-2.812 5.237-.425 1.176-.497 2.606-.74 3.891-.242 1.25-.618 2.546-.667 3.65 1.516-3.262 1.443-8.062 3.467-10.826z" fill="#EEF1F5"/><path fill-rule="evenodd" clip-rule="evenodd" d="M18.342 27.732c-.206-3.673-.425-9.965 2.69-11.056 1.213-.424 2.765-.315 3.262.74 1.067-.085 1.527.424 2.182.751-1.443-4.073-1.673-9.382-3.77-12.777.654.06.812.849 1.018 1.31 1.128 2.497 1.734 6.097 2.497 8.982.328 1.237.485 2.51 1.116 3.48-.012.193.097.133.072 0-.933-4.17-1.515-8.304-2.994-12.232-.388-1.018-1.552-4.728-2.74-2.303-.873 1.794-1.066 4.255-1.563 6.218-.303 1.176-.825 2.45-1.285 3.746-1.285 3.71-1.722 8.62-.485 13.141zM26.1 11.04c0-.34-.133-.013-.072.157.739 1.94 1.079 4.279 1.466 6.582-.024-2.388-.776-4.715-1.394-6.74z" fill="#EEF1F5"/><path fill-rule="evenodd" clip-rule="evenodd" d="M21.47 22.337c.957 1.007 1.951 1.976 2.897 2.995-.594-1.055-1.855-2.11-2.898-2.995zm-1.14 2.497c-.243.558.448.97.788 1.31.606.594 1.163.945 1.879 1.454.485.34.909.861.945 1.54.315.254.643.91.946.921.072-.885-.897-1.673-1.419-2.23-.945-1.019-2.182-2.219-3.14-2.995zm7.189 4.28c-.582 1.079-1.104 2.206-1.83 3.127.848-.812 1.6-1.721 1.83-3.127zm6.473 2.958c-.412-.097-.752.545-1.152.703.303 0 .727-.545 1.152-.703zM16.79 35.188c.097 1.684-.4 3.6-.024 5.042.448-.29.242-.897.303-1.406.097-.982.315-2.303.279-3.576.4.412.29 1.528.254 2.328-.036.86-.206 1.757-.206 2.485 1.43-.291 2.013 1.212 1.734 2.158-.255.836-1.043.788-1.928.957.024 1.455-.23 2.643-.266 4.037 2.812.642 5.818.4 9.08.218-.195-4.024.242-7.928.12-11.953-3.285.122-6.46-.278-9.346-.29zm8.716 2.715c.267 1.491.364 4.085-.182 5.285.158-1.467-.351-3.964.182-5.285zm-2.558 1.115c-.448-.618-1.018-1.43-.727-2.558.352-.545 1.382-.678 2.243-.485 1.418 1.104 1.006 3.734-1.516 3.043zm-.945 5.286c.533-.91 2.267-.655 2.715.133.291.521.158 1.43.097 2.17-1.77 1.406-3.758-.727-2.812-2.303zM4.995 36.315c-.158-.122-.51.218-.619.4.23.194.388-.34.619-.4zm83.633 2.521c.34-.06.267.303.473.388.303.012.4-.17.618-.242-.072-.219-.194-.388-.242-.619-.63.328-1.273.643-2.013.873.134.23.097.63.546.534.182-.158-.218-.425-.012-.619.303 0 .242.376.545.388a.6.6 0 01.23-.157c0-.23-.133-.328-.145-.546zm-41.823 1.491c1.504.376 2.219 1.77 3.286 2.68 1.951 1.672 4.51 1.866 7.176 3.03.06-.012.073.024.073.073-.655-1.128-2.655-1.37-4.061-2.061-.752-.376-1.467-.752-2.182-1.212-1.358-.885-2.437-2.328-4.292-2.51zm-1.939.413c-1.455.764-2.437 2.63-3.37 4.146.133.048.327.036.388.157.92-1.503 1.563-3.285 2.982-4.303zM2.11 42.715c-.243 1.588.618 3.067 1.442 4.328.376.57.861.982 1.491 1.224-1.672-1.151-2.473-3.176-2.933-5.552zm73.438-.097c-.23-.133-.812.813-.764.703.291-.194.46-.52.764-.703zm-1.237.546c-.521 0-1.236.473-1.467 1.018.667.158 1.007-.703 1.467-1.018zm-2.012.873c-.873.145-1.88.824-2.388 1.575.824-.181 1.94-.751 2.388-1.575zm-22.124.533c.34 1.673 1.213 3.467 1.685 5.261-.06-.848-.448-1.77-.727-2.715-.267-.897-.364-1.94-.958-2.546zm2.498 8.826c.073-.546-.327-1.043-.558-1.625-.679-1.697-1.26-3.758-1.842-5.576.34 2.194 1.49 5.334 2.4 7.2zm1.721-7.08c.655 1.66 1.067 3.564 1.83 5.103-.278-.824-.593-1.745-.884-2.63-.279-.885-.352-1.867-.946-2.473zm13.19.024c-.461-.036-.813.691-1.237.946.521.085.837-.667 1.237-.946zm-12.499.279c.4.788.667 2.145 1.03 2.703-.351-.885-.327-2.158-1.03-2.703zm.945.606c-.084.012-.036.073 0 .073.195.642.486 1.6.716 1.94-.218-.68-.328-1.492-.715-2.013zm9.093.618c-.23-.182-.316.267-.546.315.036.049.57-.048.546-.315zM6.826 48.874c.109-.267-.691-.291-1.019-.376.218.255.788.146 1.019.376zm37.809-.376c.085.715.4 1.891.8 2.558-.145-.667-.34-1.964-.8-2.558zm12.499.036c.012.534.412 1.358.484 2.085.207-.751-.17-1.6-.484-2.085zM46.03 48.8c.145.425.315.825.4 1.322.072-.34-.097-1.103-.4-1.321zm-9.626.255c.74 1.164 1.576 2.219 2.437 3.237-.655-.921-1.467-2.376-2.437-3.237zM7.698 51.116c.4.218.934.51 1.406.606.206.049.873.11 1.007.073.715-.218 1.394-2.049 1.915-2.51-1.188.195-1.103 1.637-2.23 1.88.024-.485.654-1.043.993-1.48-.872.328-2.085.983-3.09 1.431zm34.101 1.77c-.025.485 1.127 1.115.545.46-.157-.193-.303-.23-.545-.46zm-1.006.084c.4.413.86.74 1.333 1.08-.17-.34-.715-.958-1.333-1.08zm-5.819.135c.121.254.545.52.86.763.255.206.728.728.704.46-.51-.423-.837-1.03-1.564-1.224zm.933.06c.558.4.97.946 1.564 1.31-.582-.377-.86-1.055-1.564-1.31zm61.025 1.733c.073-.497-.388-1.103-.558-1.624-.012.133.23 1.321.558 1.624zm-54.236 2.085c.279.716 1.176.788 1.648 1.298-.303-.376-1.03-.982-1.648-1.298zm52.321.267c-1.26.207-2.28 1.019-3.394 1.589-1.152.581-2.389 1.066-3.552 1.745 1.297-.521 3.77-1.673 5.564-2.46.497-.231 1.103-.45 1.382-.873zm-51.848.898c.085.048.885.715 1.333.92-.364-.387-.824-.678-1.333-.92zm53.023.096c-2.982 1.503-6.728 3.152-10.05 4.68-.423.193-1.017.266-1.236.703.461.084.982-.207 1.394-.4 2.195-1.007 4.607-2.28 6.874-3.407 1.079-.521 2.255-.958 3.018-1.576zm-40.428 1.091c.351.958.51.413 0 0zm.63 1.237c-.146.145.412 1.006.315.848-.036-.351-.206-.57-.315-.848zm.873 2.328c.23-.219-.194-.425-.157-.704-.182.17.182.437.157.703zm.643 1.393c.06-.472-.594-1.078 0 0zm-3.274-.52c-.012.666.764 1.212 1.334 1.539-.073-.279-.34-.376-.473-.618.049-.085.182-.085.158-.23-.11-.461-.764-.364-1.019-.691zm3.88.047c-.11.146.194.534.242.777.303.048.57.157.86.218-.072-.63-.581-.825-1.102-.994zm17.19 2.546c.46-.242.933-.472 1.394-.715-.11-.012-1.164.34-1.394.715zm-19.869.267c-.06.667.715 1.151 1.26 1.467.316-.194-.242-.643-.242-1.006-.582.084-.727-.267-1.018-.461zm7.637 3.734c.352-.073.606-.23.934-.316-.316-1.006-.837-1.806-1.188-2.788-.182.024-.146.267-.388.23.206.728.436 1.431.642 2.17-.12.194-.23-.29-.315-.388-.145-.097.11.643.315.691v.4zm-6.159-2.195c-.242.085-.545.437-.776.085-.048.449.898.546 1.176.921.049-.206-.266-.703-.4-1.006zM7.988 56.632c.049 6.522.134 13.723.207 20.73.072 7.043.072 14.135.436 20.802.424-.255.218-.945.218-1.321-.036-3.346-.17-7.37.049-10.559.497.582.327 1.733.34 2.788.023 2.91.06 6.389.084 9.08.994.218.776-.352.764-1.406-.037-3.6-.134-8.05.048-11.105.34 2.837.291 6.377.327 9.783.013.8-.266 3.116.57 2.789.388-.146.218-1.407.218-1.94-.024-2.158-.157-4.582.097-6.364.51 2.351.17 5.576.316 8.304.57 0 1.14-.013 1.709-.013-.388-3.09-.121-6.667-.17-9.94.424.485.243 1.467.255 2.328.024 2.412.109 5.26 0 7.612 3.624-.084 7.067 0 10.631-.024.024-2.23-.157-4.667.085-6.68.473 1.843.182 4.462.303 6.668l4.267-.036c-.267-13.687-.436-27.882-.254-41.374-5.698-.037-11.577.097-17.239.012-.181 5.649 0 11.916-.363 17.699-.267-5.565-.206-12.147.133-17.627-.315-.181-.958-.024-1.394-.06.436 8.11.849 17.384.412 25.615-.4-3.661-.303-7.589-.351-11.565-.049-4.861-.194-9.759-.449-14.123-.51.303-.303 1.03-.29 1.479.023 6.207.205 12.656.266 19.02.024 2.74-.267 5.565.073 7.844-.51-.873-.461-1.989-.497-3.019-.11-3.237-.146-6.728-.182-10.243-.049-5.116-.194-10.632.17-15.057-.267-.048-.461-.145-.789-.097zm19.481 7.88c-.218-1.564-.388-4.303.025-5.746.218 1.564.4 4.303-.025 5.746zm-2.836 19.36c-.352-7.734-.328-16.208-.158-23.906.521 7.613.352 16.244.158 23.906zM12.63 62.56c-.424-.085-.17-.873-.242-1.321.097 0 .109-.097.23-.085.122.315.134 1.091.012 1.406zm13.662-.363c.28 4.91.898 10.655.461 15.516-.34-5.03-.618-10.558-.545-15.759 0 .11.097.11.084.243zM12.8 64.112c-.46.085-.521-.327-.388-.618h.23c.098.145.073.436.158.618zm12.838 2.594c-.74-.376-.4-1.843-.497-2.873.097 0 .109-.097.23-.073.194.873.097 2.037.267 2.946zm1.951 1.297c-.133-.388-.193-.848-.17-1.394.098 0 .11-.097.231-.085.243.255.291 1.322-.06 1.48zm-14.365 7.589c-.751-1.927-.375-5.419-.387-7.831.012-.06.06-.097.157-.085.376 2.291.097 5.88.23 7.916zm12.28-5.94c-.12-.4-.084-.958-.096-1.479h.23c.097.473.17 1.188-.133 1.479zM12.34 72.573c-.509-.46-.448-2.448-.109-3.03.134.921.085 2.012.11 3.03zm15.432-2.012c-.339-.012-.339-.46-.242-.703h.23c.134.255.037.424.012.703zm-1.976 4.364c-.072-.763-.46-2.279.049-2.873.133.824.158 2.158-.049 2.873zm2.146-1.806c-.364.11-.545-.449-.242-.546.072.207.23.316.242.546zm-.46 15.844c-.122-4.328-.122-9.116.181-13.274.255 4.267.303 9.262-.182 13.274zm-14.16-10.728c-.46-.013-.46-.861-.315-1.237.473.036.267.764.315 1.237zm-2.145 10.037c-.134-3.455-.28-7.528-.025-10.862.182 3.298.461 7.686.025 10.862zm14.74-.46c-.327-3.116-.205-6.838-.181-10.087.097 0 .109-.096.23-.084.085 3.224.376 7.2-.048 10.17zm-12.643-6.935c-.049-.097-.364-.533 0-.545.073.06.17.485 0 .545zm-.11 4.97c.061-.218-.169-.727.146-.703-.06.219.17.728-.145.704zM70.772 70.84c1.018-.328 1.976 1.418 3.345.74-.848-.498-1.782-.898-2.582-1.456-.63.098-.982.473-1.551.643.376.29 1.054.29 1.479.533.06-.133-.255-.557-.691-.46zm-13.347-.182c0 .945 1.09.776 1.636 1.151.06-.69-.994-.921-1.636-1.151zm8.558 2.242c.303.219.824.206 1.164.376-.012-.194-.728-.351-1.164-.376zM34.646 99.133c.327.243.594.546 1.018.691a2.758 2.758 0 00-1.018-.69zm-6.109 1.855c-.255 0-.522 0-.776.012.048.328-.206.364-.388.473.242 0 .945-.206 1.164-.485zM16.778 34.569c.206.424 1.067.181 1.551.145a76.63 76.63 0 015.201-.206c2.412-.024 5.007.17 7.14-.073.267-.024.558.122.618-.242 1.237.473 3.516.133 4.813.109v-.158c.012-.097-.012-.133-.085-.157-5.322.315-12.17.085-18.244.34-.279.011-.849-.195-.994.242zm63.437 9.165a121.938 121.938 0 013.261 8.352c-1.467-2.424-2.34-5.455-3.418-8.267-.267.145-.595.242-.85.4 1.262 3.127 2.79 5.988 3.892 9.273-1.564-2.558-2.824-6.11-4.279-9.043-2.764 1.03-5.273 2.315-7.88 3.491 2.4 4.813 4.825 9.613 6.668 14.996-2.425-4.461-4.498-10.05-6.97-14.753-.655.12-1.08.484-1.625.715 2.57 4.97 4.667 10.401 7.14 15.456-.91-1.042-1.491-2.352-2.134-3.625-1.26-2.497-2.363-5.236-3.49-7.88-.57-1.32-1.043-2.702-1.82-3.866-.108.12-.266.194-.46.23.388 1.394 1.2 2.63 1.83 3.94 1.88 3.903 3.662 8.025 5.322 12.207.691-.242 1.249-.618 1.928-.873-2.352-5.2-4.898-10.219-7.14-15.528 2.582 4.654 5.237 9.964 7.213 15.456 4.849-2.389 9.795-4.704 14.607-7.128-2.473-4.995-4.643-10.317-6.752-15.687-1.806.594-3.31 1.467-5.043 2.134zm1.006 7.285c.764 1.588 1.649 3.14 1.988 4.873-1.454-3.127-3.212-6.34-4.364-9.504a87.312 87.312 0 012.376 4.631zm-4.23-3.685c-.073-.17-.558-.63-.158-.776.06.194.388.522.157.776zm5.212 8.801c-1.115-2.352-2.424-4.898-3.176-7.346 1.176 2.279 2.485 4.825 3.176 7.346zm-2.352-2.546c-.497-.812-.897-1.697-1.272-2.63.012-.06.06-.085.157-.085.376.848 1.03 1.83 1.115 2.715zm4.74.97c-.57-.473-.679-1.394-1.03-2.085.097-.012.109-.097.23-.085.315.679.728 1.249.8 2.17zm-3.164 1.734c.388 1.163 1.116 2.46 1.516 3.636.133.425.303.922.242 1.237-.897-1.467-1.588-3.14-2.146-4.946.013-.06.061-.097.158-.073.012.11.17.085.23.146z" fill="#EEF1F5"/></svg>